<?xml version="1.0" encoding="UTF-8"?>
<svg version="1.1" xmlns="http://www.w3.org/2000/svg" width="1699" height="736">
<path d="M0 0 C560.67 0 1121.34 0 1699 0 C1699 242.88 1699 485.76 1699 736 C1138.33 736 577.66 736 0 736 C0 493.12 0 250.24 0 0 Z " fill="#FEFEFC" transform="translate(0,0)"/>
<path d="M0 0 C1.28583984 0.25716797 1.28583984 0.25716797 2.59765625 0.51953125 C28.02747017 6.32456977 49.34366988 25.5218341 63 47 C81.49871795 77.94529017 85.281862 117.69160753 76.67675781 152.44140625 C74.6691915 160.03133948 72.42897511 167.53494982 70 175 C76.13815139 177.181167 82.24861164 178.86594209 88.625 180.1875 C89.43195313 180.36474609 90.23890625 180.54199219 91.0703125 180.72460938 C99.54238012 182.58625318 99.54238012 182.58625318 107.80859375 180.71484375 C108.67613281 180.12832031 109.54367187 179.54179687 110.4375 178.9375 C111.37722656 178.30328125 112.31695312 177.6690625 113.28515625 177.015625 C116.4276741 174.68247506 119.32966829 172.19368933 122.1484375 169.48046875 C126.64759951 165.88303752 131.29561725 165.63525622 136.875 165.625 C137.53757812 165.60050781 138.20015625 165.57601562 138.8828125 165.55078125 C144.08956555 165.52185484 148.82001292 166.6430262 153.81298828 168.02880859 C154.50582413 168.21751022 155.19865997 168.40621185 155.91249084 168.60063171 C157.60934791 169.06336104 159.30481884 169.53116831 161 170 C161.00331015 169.1645506 161.00662029 168.3291012 161.01003075 167.46833515 C161.09122865 147.14595636 161.1833106 126.82365235 161.28752708 106.50137806 C161.33766242 96.67370474 161.38410526 86.84603981 161.421875 77.01831055 C161.454802 68.45309961 161.49463718 59.88795354 161.54279006 51.32281417 C161.56804797 46.78707417 161.58983138 42.25137716 161.60334396 37.71558571 C161.6161707 33.44663881 161.63823178 29.17783937 161.66738319 24.90897369 C161.67645416 23.34207185 161.68214809 21.77514627 161.68421364 20.20821953 C161.68753959 18.06843987 161.70302563 15.92907746 161.7215271 13.78938293 C161.72705786 12.59197385 161.73258862 11.39456476 161.73828697 10.16087055 C162.06385689 6.22876075 162.92306724 3.31104857 165.4375 0.25 C169.18831618 -2.75065295 173.75849865 -2.21904672 178.3125 -2.25 C179.05951172 -2.270625 179.80652344 -2.29125 180.57617188 -2.3125 C185.45583635 -2.34677332 188.80431945 -1.75167233 193 1 C196.26493887 4.3769634 196.37629668 6.95766178 196.38031673 11.56899929 C196.38497665 12.23058242 196.38963657 12.89216555 196.3944377 13.57379666 C196.40643071 15.80049124 196.39697616 18.02658048 196.38768005 20.25328064 C196.3918511 21.86184533 196.39732736 23.47040708 196.40399987 25.07896334 C196.4185033 29.50694497 196.41419453 33.93474125 196.40683305 38.36273324 C196.40211576 43.1351456 196.41459844 47.90751702 196.42485046 52.67991638 C196.44207206 62.03239543 196.44287153 71.38480739 196.43763756 80.73729818 C196.43360091 88.33680541 196.4350334 95.93629276 196.44038582 103.53579903 C196.44113424 104.61620434 196.44188266 105.69660965 196.44265376 106.80975451 C196.44418519 109.00438972 196.44572354 111.19902493 196.44726873 113.39366014 C196.46100591 133.98798974 196.45554751 154.58228138 196.44408352 175.17661012 C196.4341496 194.02940689 196.44709241 212.88210554 196.47101771 231.73488718 C196.49538305 251.07973047 196.50502292 270.42452801 196.49836498 289.76938635 C196.49486709 300.63535354 196.49714239 311.50124523 196.51461601 322.36720085 C196.52930595 331.61709915 196.53001556 340.86686879 196.5125451 350.11676448 C196.50400624 354.83838859 196.50195563 359.55978258 196.51719666 364.28139496 C196.53096819 368.60115225 196.52637847 372.92048063 196.50695742 377.24021263 C196.50317381 378.80544629 196.50618681 380.37071369 196.51656907 381.93591749 C196.52965696 384.05951951 196.51823172 386.18162309 196.50057125 388.30515957 C196.50046391 389.48582011 196.50035658 390.66648064 196.50024599 391.88291878 C195.8956842 395.65000186 194.63701959 397.29416162 192 400 C187.7193996 402.49450481 183.32146958 402.33331809 178.5 402.3125 C177.75363281 402.32861328 177.00726562 402.34472656 176.23828125 402.36132812 C171.71876154 402.3653277 168.51730819 402.12862015 165 399 C162.5013965 394.07823146 161.62645076 390.49004879 161.63923645 384.8941803 C161.63667318 384.21441318 161.6341099 383.53464607 161.63146895 382.83427995 C161.62656045 380.57555145 161.64297432 378.31750394 161.65942383 376.05883789 C161.66027074 374.43221045 161.65979371 372.80558186 161.65809631 371.17895508 C161.65723744 366.77651626 161.67484575 362.37432387 161.69581819 357.97194219 C161.71460292 353.36619019 161.71633684 348.76043222 161.71989441 344.15464783 C161.7292096 335.43895706 161.75381626 326.7233795 161.78394288 318.00773853 C161.81750326 308.08275078 161.83397702 298.15775756 161.84902918 288.23272717 C161.88036628 267.82175498 161.93311655 247.41088463 162 227 C160.8663501 227.28367432 159.7327002 227.56734863 158.56469727 227.85961914 C157.04452554 228.23100806 155.52425659 228.60199919 154.00390625 228.97265625 C153.26064087 229.15977173 152.51737549 229.34688721 151.75158691 229.53967285 C142.01227321 231.89309766 131.05980262 233.09607227 122 228 C118.92906086 225.48651874 116.22044349 222.69667389 113.5 219.8125 C112.77296875 219.06291016 112.0459375 218.31332031 111.296875 217.54101562 C109.51925791 215.70492429 107.7544484 213.8581958 106 212 C102.42567239 213.37950647 99.44114819 214.94028217 96.25 217.0625 C91.59483694 219.86664867 87.51567386 221.79362214 82 221 C79.03806164 219.67437724 76.56682094 217.96867036 74 216 C71.31973545 213.75819838 71.31973545 213.75819838 69 214.1875 C66.66048963 215.13792609 65.45747417 215.92885249 64 218 C64.71417591 222.22221675 66.85725348 225.80502242 68.8125 229.5625 C73.47449981 238.71755654 77.24513659 247.83119326 79 258 C79.185625 259.05316406 79.37125 260.10632813 79.5625 261.19140625 C82.23587975 278.40128842 81.35705734 294.96695997 78 312 C77.72736328 313.52560547 77.72736328 313.52560547 77.44921875 315.08203125 C73.24689887 335.06449107 63.07275832 353.5528019 50 369 C49.20722656 370.01126953 49.20722656 370.01126953 48.3984375 371.04296875 C34.49232861 388.20297012 11.50784044 399.05047634 -10 402 C-24.98196741 403.25842312 -38.81681247 401.94901219 -53 397 C-54.06992187 396.62746094 -55.13984375 396.25492188 -56.2421875 395.87109375 C-79.88200458 386.67783155 -101.49624759 371.41915733 -122.59814453 357.57421875 C-125.45668306 355.70068181 -128.32012522 353.83474309 -131.18359375 351.96875 C-132.86596819 350.87136238 -134.54834039 349.77397129 -136.23052979 348.67630005 C-137.36416383 347.93660251 -138.49791135 347.19707885 -139.6317749 346.45773315 C-145.24542116 342.79583246 -150.84752739 339.12148468 -156.38671875 335.34765625 C-157.19568604 334.79843506 -158.00465332 334.24921387 -158.83813477 333.68334961 C-160.30326411 332.68495945 -161.76385223 331.67985224 -163.21850586 330.66625977 C-167.66583305 327.63821051 -171.89884938 325.72695203 -177 324 C-178.29331213 323.52529251 -179.58519359 323.04665172 -180.875 322.5625 C-181.52210938 322.32015625 -182.16921875 322.0778125 -182.8359375 321.828125 C-186.91046896 320.26891801 -190.9546245 318.63307167 -195 317 C-195 316.34 -195 315.68 -195 315 C-195.969375 314.97421875 -196.93875 314.9484375 -197.9375 314.921875 C-199.29170305 314.86544987 -200.64586805 314.80810641 -202 314.75 C-203.299375 314.70359375 -204.59875 314.6571875 -205.9375 314.609375 C-209.532758 314.31430963 -212.85039187 313.54190762 -216.32397461 312.57983398 C-226.52752393 309.76493216 -236.4574856 309.1364381 -247 308.75 C-248.75787843 308.67337286 -250.51569256 308.59525548 -252.2734375 308.515625 C-256.51508347 308.32663774 -260.7570757 308.15757237 -265 308 C-265.33 306.35 -265.66 304.7 -266 303 C-250.1807196 296.84805762 -230.11612437 296.97276223 -214 302 C-212.97519531 302.48855469 -211.95039063 302.97710937 -210.89453125 303.48046875 C-205.70883463 305.78006338 -200.07344079 306.23079998 -194.5 307 C-187.4813525 307.96865544 -181.47063242 308.99756923 -175 312 C-170.71340284 313.47695605 -166.38751477 314.82778814 -162.0625 316.1875 C-160.90169922 316.55552734 -159.74089844 316.92355469 -158.54492188 317.30273438 C-155.69759455 318.2049739 -152.84928454 319.10396451 -150 320 C-150 320.66 -150 321.32 -150 322 C-149.34 322.103125 -148.68 322.20625 -148 322.3125 C-144.16158991 323.19213564 -140.66903309 324.56969896 -137 326 C-137 326.66 -137 327.32 -137 328 C-136.14615723 328.26014893 -135.29231445 328.52029785 -134.41259766 328.78833008 C-130.86037717 330.0495742 -127.71983655 331.60629933 -124.3984375 333.38671875 C-123.77244156 333.72070679 -123.14644562 334.05469482 -122.5014801 334.39880371 C-121.1566749 335.11715726 -119.81302197 335.83767139 -118.47042847 336.56015015 C-116.34546743 337.70338866 -114.2172129 338.84027959 -112.08813477 339.97583008 C-105.10609429 343.7038193 -98.14105377 347.46200097 -91.19140625 351.25 C-66.02552882 364.94699817 -39.31834647 378.78948308 -9.92480469 370.63378906 C6.89534924 365.09534163 20.30266918 353.05974775 28.38671875 337.49609375 C32.66966149 328.93792065 36.46429116 320.51565387 38 311 C38.12761719 310.25878906 38.25523437 309.51757812 38.38671875 308.75390625 C41.67571567 284.10778648 37.85447604 260.36166931 23.96484375 239.54296875 C19.70565491 234.03057922 14.80808135 228.87205423 9 225 C4.14398219 224.38163069 -0.73178339 224.48284661 -5 227 C-6.21690103 228.11572681 -7.4241194 229.242048 -8.625 230.375 C-14.91885833 236.05251062 -22.00230809 238.31849935 -30.38598633 238.15795898 C-35.6683638 237.83875676 -40.88884102 237.05787192 -46.125 236.3125 C-48.80973897 235.94151606 -51.49461659 235.57168448 -54.1796875 235.203125 C-54.88561035 235.10564468 -55.5915332 235.00816437 -56.31884766 234.9077301 C-61.69008035 234.16919311 -67.06597368 233.47365662 -72.4453125 232.796875 C-73.64553795 232.64576767 -73.64553795 232.64576767 -74.87001038 232.49160767 C-76.504615 232.28590292 -78.13922297 232.08022479 -79.77383423 231.87457275 C-93.72353425 230.11648315 -107.64097039 228.21306259 -121.54431152 226.12039185 C-131.68043876 224.59720252 -141.82467143 223.23342516 -152 222 C-163.40215702 220.61773551 -174.76145576 219.03238667 -186.11764526 217.31402588 C-201.55105123 214.98690826 -217.03073391 213.04432363 -232.52172852 211.14306641 C-243.02712371 209.84286683 -253.44977585 208.35472869 -263.85403442 206.4017334 C-266.14025244 205.97374418 -268.42814221 205.55574952 -270.71655273 205.13964844 C-274.80156657 204.39623623 -278.88530305 203.64611329 -282.96850586 202.89282227 C-285.45993259 202.43336307 -287.95163509 201.9754206 -290.44335938 201.51757812 C-298.30799444 200.06983884 -306.16498978 198.60207228 -314 197 C-314 196.34 -314 195.68 -314 195 C-301.12997019 190.92430457 -288.63209807 188.01865465 -275.21530151 186.55462646 C-270.18026881 186.00246167 -265.15298529 185.38599235 -260.125 184.7734375 C-258.48204201 184.57459457 -258.48204201 184.57459457 -256.80589294 184.37173462 C-239.3353057 182.22259259 -221.93753985 179.52147077 -204.53044128 176.916255 C-201.0712429 176.39877373 -197.6118763 175.88242999 -194.15234375 175.3671875 C-193.14006399 175.21641534 -193.14006399 175.21641534 -192.10733414 175.06259727 C-172.76827914 172.18843878 -153.38383578 169.65286168 -133.98388672 167.22607422 C-113.08685536 164.61100583 -92.24173292 161.65888423 -71.3984375 158.6484375 C-70.44775391 158.51131348 -69.49707031 158.37418945 -68.51757812 158.23291016 C-63.7350955 157.54244818 -58.95350529 156.846524 -54.1730957 156.1418457 C-52.30680779 155.86927325 -50.44051564 155.59672975 -48.57421875 155.32421875 C-47.31446732 155.13616165 -47.31446732 155.13616165 -46.02926636 154.94430542 C-33.19454092 153.07948056 -22.14607197 152.3182477 -11 160 C-7.75086185 162.48706757 -4.65467453 165.11278873 -1.59375 167.828125 C2.98995029 171.66628367 5.96343788 172.52952299 12 172 C17.47725111 169.73355126 19.64259361 165.33996169 22.5 160.4375 C22.98339844 159.62482666 23.46679688 158.81215332 23.96484375 157.97485352 C38.76966543 132.8763677 42.49483489 107.33304886 35.47998047 78.89160156 C33.00366819 69.78744722 29.17549825 61.85608142 24 54 C23.29230469 52.89205078 23.29230469 52.89205078 22.5703125 51.76171875 C13.91727826 39.17326498 -1.33546458 31.26225501 -16 28 C-19.53390723 27.59070189 -23.00737741 27.52205021 -26.5625 27.5625 C-27.99650146 27.57494751 -27.99650146 27.57494751 -29.45947266 27.58764648 C-50.41263047 28.07870882 -67.27888982 36.75095575 -85.12133789 46.96533203 C-106.4736094 59.16415392 -128.81265648 68.66693668 -151.52868652 77.98596191 C-153.97470336 78.98962019 -156.41952132 79.99615743 -158.86425781 81.00292969 C-162.76956234 82.60890114 -166.67950457 84.20305249 -170.59341431 85.78793335 C-172.0403117 86.3744725 -173.48630282 86.96325381 -174.9312439 87.55459595 C-195.50364947 95.95601854 -217.55615024 103.28317743 -240 99 C-240.33 97.35 -240.66 95.7 -241 94 C-236.98514003 92.910916 -232.9689761 91.82680591 -228.95166016 90.74682617 C-227.59193802 90.38059958 -226.23254888 90.01313384 -224.87353516 89.64428711 C-217.85085776 87.73917144 -210.86318784 85.93688189 -203.72265625 84.515625 C-197.33418115 83.18002539 -191.54341454 81.14863328 -185.5625 78.5625 C-184.53954834 78.12639404 -183.51659668 77.69028809 -182.46264648 77.2409668 C-156.93953668 66.15699179 -132.62484334 51.95184065 -110.15576172 35.56396484 C-70.5698096 6.8450963 -70.5698096 6.8450963 -47 1 C-46.01128906 0.7009375 -45.02257812 0.401875 -44.00390625 0.09375 C-30.17943525 -3.78932638 -13.91352853 -3.32484624 0 0 Z " fill="#EA9B41" transform="translate(396,139)"/>
<path d="M0 0 C22.81247818 20.08006436 39.48501469 50.98162167 41.8046875 81.46875 C43.18024918 105.77867642 39.83374288 139.55242497 23.0546875 158.765625 C20.48481384 161.26687372 20.48481384 161.26687372 20.8046875 164.46875 C21.7328125 164.7575 22.6609375 165.04625 23.6171875 165.34375 C26.8046875 166.46875 26.8046875 166.46875 29.8046875 168.46875 C30.85675534 173.2397553 30.62724507 177.80456106 28.45703125 182.1953125 C26.99237108 184.37672126 25.48180206 186.44722799 23.8046875 188.46875 C23.1446875 187.80875 22.4846875 187.14875 21.8046875 186.46875 C22.23240299 187.88840142 22.67234293 189.3043724 23.1171875 190.71875 C23.36082031 191.50765625 23.60445313 192.2965625 23.85546875 193.109375 C24.67451074 195.48754596 24.67451074 195.48754596 26.22705078 197.1965332 C28.22764357 200.07791932 29.01398335 202.81690931 29.99609375 206.18359375 C30.18686996 206.8351796 30.37764618 207.48676544 30.57420349 208.15809631 C30.9757487 209.53786865 31.37304662 210.91888326 31.76635742 212.30102539 C32.35735381 214.37179412 32.9656253 216.43687639 33.57617188 218.50195312 C37.74810866 232.81374214 39.1589289 246.32660991 39.0546875 261.15625 C39.05125336 261.95244751 39.04781921 262.74864502 39.04428101 263.56896973 C38.85972873 300.00499182 29.33871566 324.14610532 3.1953125 350.0546875 C-12.57548746 364.77075243 -31.23809998 371.2757986 -52.73046875 370.71484375 C-82.06089846 369.3897333 -105.23732537 359.04731041 -128.2109375 341.2890625 C-133.02856499 337.56531984 -137.95762061 334.02274017 -142.9453125 330.53125 C-143.67878906 330.01715576 -144.41226563 329.50306152 -145.16796875 328.97338867 C-146.84195921 327.80261112 -148.51833668 326.63524743 -150.1953125 325.46875 C-149.8653125 324.47875 -149.5353125 323.48875 -149.1953125 322.46875 C-143.00882514 324.11431398 -137.8083571 327.4050851 -132.3203125 330.59375 C-105.60922965 345.89216481 -75.49621044 361.88489072 -43.71484375 354.6796875 C-28.88400362 350.40256362 -15.70651472 342.80220147 -6.1953125 330.46875 C-5.56109375 329.68113281 -4.926875 328.89351563 -4.2734375 328.08203125 C9.83745697 309.7870925 16.84950826 287.81984675 14.36328125 264.703125 C12.95643983 254.00590355 10.31655673 243.65826042 6.8046875 233.46875 C6.19367188 231.68210937 6.19367188 231.68210937 5.5703125 229.859375 C1.24051726 218.60190737 -6.05984513 209.28853807 -13.97265625 200.28125 C-19.68722393 193.4923797 -21.11946595 189.02300056 -20.51171875 180.109375 C-20.40730469 179.23796875 -20.30289062 178.3665625 -20.1953125 177.46875 C-20.09263417 179.36225926 -20.06573763 181.25996437 -20.0703125 183.15625 C-20.04710937 184.21199219 -20.02390625 185.26773438 -20 186.35546875 C-21.40653855 190.01890411 -22.13751713 190.33386719 -25.51953125 192.078125 C-27.39690464 192.90870733 -29.29013012 193.70410762 -31.1953125 194.46875 C-32.15018555 194.85393799 -33.10505859 195.23912598 -34.08886719 195.63598633 C-37.09037558 196.80669398 -40.10660232 197.92607573 -43.1328125 199.03125 C-44.14021484 199.40443359 -45.14761719 199.77761719 -46.18554688 200.16210938 C-48.21213801 200.91149195 -50.24415275 201.6463655 -52.28125 202.36669922 C-55.16215203 203.39674974 -55.16215203 203.39674974 -57.65625 204.71533203 C-67.24098493 209.25596772 -77.23145792 206.71170847 -87.3203125 205.21875 C-89.3744546 204.93363274 -91.42882182 204.65013315 -93.48339844 204.36816406 C-100.06168943 203.45126156 -106.62910575 202.46814532 -113.1953125 201.46875 C-114.33601196 201.29569336 -115.47671143 201.12263672 -116.65197754 200.94433594 C-124.58846954 199.73562292 -132.51874728 198.49086554 -140.4453125 197.21875 C-141.52218323 197.04694214 -142.59905396 196.87513428 -143.70855713 196.69812012 C-146.75257805 196.20879301 -149.7945068 195.70827435 -152.8359375 195.203125 C-154.19671921 194.98462891 -154.19671921 194.98462891 -155.58499146 194.76171875 C-156.41578217 194.62088867 -157.24657288 194.48005859 -158.10253906 194.33496094 C-158.82459534 194.21538025 -159.54665161 194.09579956 -160.29058838 193.97259521 C-162.1953125 193.46875 -162.1953125 193.46875 -165.1953125 191.46875 C-165.8828125 189.34375 -165.8828125 189.34375 -166.1953125 187.46875 C-166.1953125 188.78875 -166.1953125 190.10875 -166.1953125 191.46875 C-174.15914292 191.66360119 -181.96164261 191.06982456 -189.8828125 190.28125 C-190.86201157 190.18529541 -190.86201157 190.18529541 -191.86099243 190.08740234 C-203.72682702 188.91822498 -215.55690777 187.48568203 -227.3828125 185.96875 C-228.17618011 185.86728668 -228.96954773 185.76582336 -229.78695679 185.6612854 C-248.7083338 183.22906598 -267.55216755 180.29171477 -286.39306641 177.30664062 C-288.37655714 176.99298771 -290.36028955 176.68086 -292.34423828 176.37011719 C-295.25604958 175.91401054 -298.16715357 175.45362006 -301.078125 174.9921875 C-301.96750763 174.85364349 -302.85689026 174.71509949 -303.77322388 174.57235718 C-304.58943207 174.44197052 -305.40564026 174.31158386 -306.24658203 174.17724609 C-306.96347198 174.06416107 -307.68036194 173.95107605 -308.41897583 173.83456421 C-310.1953125 173.46875 -310.1953125 173.46875 -312.1953125 172.46875 C-312.1953125 171.80875 -312.1953125 171.14875 -312.1953125 170.46875 C-285.77487387 164.91898189 -259.18546038 161.3682121 -232.40625 158.10546875 C-224.14627732 157.09811756 -215.8895616 156.06463369 -207.6328125 155.03125 C-206.82743042 154.93049164 -206.02204834 154.82973328 -205.19226074 154.72592163 C-200.11589052 154.09064965 -195.03970118 153.45394674 -189.96362305 152.81634521 C-188.05430514 152.57660702 -186.14496109 152.33707702 -184.2355957 152.09771729 C-177.97529059 151.31287335 -171.71543493 150.52457573 -165.45608521 149.73214722 C-163.44618357 149.4781378 -161.43615799 149.22510675 -159.42599487 148.97317505 C-146.64087856 147.36974102 -133.9101239 145.55953611 -121.1953125 143.46875 C-121.1953125 144.45875 -121.1953125 145.44875 -121.1953125 146.46875 C-120.42598389 145.84460205 -119.65665527 145.2204541 -118.86401367 144.57739258 C-114.43710397 141.64358881 -109.67316467 141.32857165 -104.49609375 140.73046875 C-102.94984566 140.53563652 -102.94984566 140.53563652 -101.37236023 140.33686829 C-99.19555604 140.06638622 -97.01775959 139.80378741 -94.83911133 139.54858398 C-91.53369753 139.15929853 -88.23295614 138.74084696 -84.93164062 138.31835938 C-82.80750613 138.0581392 -80.6831623 137.79962104 -78.55859375 137.54296875 C-77.09707634 137.35718513 -77.09707634 137.35718513 -75.60603333 137.16764832 C-67.65542847 136.26095672 -57.92801894 135.32652161 -50.89453125 139.890625 C-46.56356562 143.9129471 -42.83764838 149.18407823 -40.1953125 154.46875 C-32.36014775 155.90017433 -24.28377946 156.53262674 -17.1953125 152.46875 C-0.06721283 140.39048661 8.74258539 119.23838305 12.38671875 99.28125 C15.08018364 74.71282257 12.36417927 46.78133629 -3.3671875 26.62109375 C-3.97046875 25.91082031 -4.57375 25.20054687 -5.1953125 24.46875 C-5.86046875 23.64503906 -6.525625 22.82132813 -7.2109375 21.97265625 C-20.54597761 6.21524375 -37.42152462 -2.09197371 -57.8828125 -3.84765625 C-87.72386979 -4.82760622 -115.38124863 13.51841912 -140.13110352 28.01611328 C-146.60914816 31.75898352 -153.23240266 34.73735078 -160.1953125 37.46875 C-160.5253125 36.14875 -160.8553125 34.82875 -161.1953125 33.46875 C-151.4215011 26.36623754 -141.46473804 19.58414631 -131.38525391 12.92382812 C-129.317359 11.54984221 -127.26020981 10.16147806 -125.20703125 8.765625 C-86.22728267 -17.6847399 -40.21248363 -31.82126076 0 0 Z " fill="#FC8703" transform="translate(428.1953125,162.53125)"/>
<path d="M0 0 C3.3851764 2.76212184 4.8767895 6.53854156 6.66796875 10.41015625 C7.01973175 11.15685074 7.37149475 11.90354523 7.73391724 12.67286682 C8.89123228 15.13325619 10.03936137 17.59781684 11.1875 20.0625 C11.99508463 21.78397405 12.80327916 23.5051621 13.61206055 25.22607422 C15.27168327 28.75969915 16.9277844 32.29494162 18.58105469 35.83154297 C20.80712471 40.59162382 23.04539385 45.34584956 25.2890625 50.09765625 C31.36099254 62.96190253 37.40045259 75.84017393 43.375 88.75 C48.46070683 99.73716614 53.62352096 110.68632281 58.8125 121.625 C59.193992 122.42923401 59.57548401 123.23346802 59.96853638 124.06207275 C60.54110672 125.26908844 60.54110672 125.26908844 61.12524414 126.50048828 C61.89601014 128.12531886 62.66676211 129.75015609 63.4375 131.375 C63.81889633 132.17904266 64.20029266 132.98308533 64.59324646 133.81149292 C74.39841694 154.48859559 84.11754459 175.20519897 93.73828125 195.96875 C97.41546664 203.90247344 101.11313656 211.82660095 104.8125 219.75 C105.12576233 220.42099731 105.43902466 221.09199463 105.76177979 221.7833252 C107.5074722 225.52239479 109.25355276 229.26128289 111 233 C105.23045079 236.84636614 96.82330488 237.68233049 90 237 C81.89774426 233.52760468 78.43315839 225.41175772 74.9375 217.875 C74.49631836 216.94010742 74.05513672 216.00521484 73.60058594 215.04199219 C71.34314704 210.18150202 69.32174099 205.38302754 67.75 200.25 C64.667103 190.30836425 59.18577856 183.9440276 50 179 C40.65002385 175.13580321 29.15072331 176.72126561 19.29296875 177.5234375 C11.6583297 178.06271064 4.04869169 178.03113558 -3.6015625 177.95703125 C-4.8163176 177.94680435 -6.03107269 177.93657745 -7.28263855 177.92604065 C-12.35548995 177.8806151 -17.42801595 177.83082349 -22.50048828 177.75317383 C-26.24257708 177.69879267 -29.9841783 177.66965099 -33.7265625 177.64453125 C-34.87033356 177.62074905 -36.01410461 177.59696686 -37.1925354 177.57246399 C-43.24375892 177.55248421 -47.42616435 177.57661947 -52 182 C-53.97762241 184.89035846 -53.97762241 184.89035846 -55.4609375 188.25390625 C-55.75020111 188.8632753 -56.03946472 189.47264435 -56.3374939 190.10047913 C-60.00311525 197.93615659 -63.22588186 205.97294714 -66.453125 213.99633789 C-73.4961809 231.45240245 -73.4961809 231.45240245 -78.9609375 235.42578125 C-86.47633077 237.5421851 -95.35449715 235.91245379 -103 235 C-101.06464613 228.84898343 -98.79043285 222.96532368 -96.1484375 217.0859375 C-95.59187218 215.83321045 -95.59187218 215.83321045 -95.02406311 214.55517578 C-94.22678894 212.76164178 -93.42769078 210.96891766 -92.62692261 209.17694092 C-90.47062754 204.35091467 -88.32822256 199.51871889 -86.18359375 194.6875 C-85.74618362 193.70316986 -85.3087735 192.71883972 -84.85810852 191.7046814 C-80.67304779 182.28088046 -76.54840432 172.83133084 -72.4375 163.375 C-71.04209006 160.1677844 -69.6461515 156.96079911 -68.25 153.75390625 C-67.90352921 152.95803604 -67.55705841 152.16216583 -67.2000885 151.34217834 C-51.19084561 114.58250171 -34.94335949 77.93024504 -18.46923828 41.37670898 C-12.26419725 27.60591084 -6.11234383 13.81221443 0 0 Z " fill="#EA8030" transform="translate(941,134)"/>
<path d="M0 0 C8.47962923 1.73664246 15.54187186 11.16182644 20.3671875 17.89453125 C22.03534642 20.13821167 22.03534642 20.13821167 24.4296875 22.41796875 C31.68561809 29.70698109 37.30320001 38.78161292 43.0546875 47.28515625 C44.81970194 49.90761297 44.81970194 49.90761297 46.5703125 51.55859375 C48 53 48 53 49.3671875 55.3515625 C51.29053425 58.47124934 53.52695357 60.79175725 56.125 63.375 C56.84925171 64.09562622 56.84925171 64.09562622 57.58813477 64.83081055 C61.16880446 68.33500791 64.92163708 71.40704791 69.02734375 74.26953125 C71 76 71 76 72.78125 78.73046875 C75.58848521 82.86718683 78.96640418 86.05198368 82.5625 89.5 C88.1931904 95.0042223 93.30320831 100.60314896 98.03271484 106.89355469 C101.80400531 111.87699443 105.95616451 116.41945642 110.29394531 120.91479492 C114 124.79900161 114 124.79900161 114 127 C115.485 127.495 115.485 127.495 117 128 C120 132.33333333 120 132.33333333 120 135 C120.99 135 121.98 135 123 135 C124.62109375 136.625 124.62109375 136.625 126.4375 139 C127.13230469 139.8971875 127.82710937 140.794375 128.54296875 141.71875 C130.40059899 144.1821461 132.22692261 146.66777932 134.05078125 149.15625 C134.57937744 149.87296875 135.10797363 150.5896875 135.65258789 151.328125 C136.70548932 152.75967187 137.75047136 154.19708227 138.78686523 155.640625 C139.27485596 156.30578125 139.76284668 156.9709375 140.265625 157.65625 C140.69649414 158.25244141 141.12736328 158.84863281 141.57128906 159.46289062 C143.22140019 161.23819816 144.81337327 161.99158822 147 163 C148.921875 164.7265625 148.921875 164.7265625 150.75 166.625 C151.36359375 167.25664062 151.9771875 167.88828125 152.609375 168.5390625 C153.06828125 169.02117187 153.5271875 169.50328125 154 170 C155.24068355 162.25162485 155.1744917 154.50507443 155.20532227 146.6796875 C155.21491387 145.13172654 155.22492468 143.58376814 155.23532104 142.03581238 C155.26223733 137.85255162 155.28331833 133.66927974 155.30332303 129.48598099 C155.32526498 125.10708871 155.35261332 120.72823021 155.37937927 116.34936523 C155.42919557 108.06585544 155.47417522 99.78232677 155.51740164 91.49878025 C155.56686885 82.06465276 155.62175166 72.63055918 155.67708123 63.19646454 C155.79073134 43.79767455 155.89760701 24.39885251 156 5 C159.41621788 4.85460047 162.83163991 4.76590275 166.25 4.6875 C167.21808594 4.64560547 168.18617188 4.60371094 169.18359375 4.56054688 C170.11816406 4.54443359 171.05273438 4.52832031 172.015625 4.51171875 C172.87446289 4.48553467 173.73330078 4.45935059 174.61816406 4.43237305 C177 5 177 5 179.2801981 7.00529575 C181.48476111 10.84411824 181.55387481 14.09786125 181.50120544 18.40354919 C181.50950704 19.66920884 181.50950704 19.66920884 181.51797634 20.96043736 C181.53158586 23.78699448 181.51661157 26.61266903 181.50170898 29.43920898 C181.50549231 31.46647008 181.51099245 33.4937286 181.51808167 35.52098083 C181.53205976 41.02982316 181.52084626 46.53835391 181.50437045 52.04717898 C181.49051793 57.81954616 181.49698092 63.59189527 181.50050354 69.36427307 C181.50320745 79.06801363 181.48972117 88.77163065 181.46655273 98.4753418 C181.44000935 109.66953956 181.4381738 120.86352986 181.4499411 132.05774826 C181.4607546 142.84271024 181.45449947 153.6275977 181.44038582 164.41255379 C181.43465014 168.99233845 181.43468978 173.57206815 181.43945122 178.15185356 C181.44425454 183.56014439 181.43398134 188.96821088 181.41249657 194.37645912 C181.40697147 196.35240803 181.40642362 198.32837868 181.41144943 200.30432892 C181.43589538 211.30219724 180.93147683 221.32437819 178 232 C173.62775224 230.37850414 171.08669692 228.4234275 168 225 C166.99259766 223.91138672 166.99259766 223.91138672 165.96484375 222.80078125 C162.1267763 218.60721528 158.44173217 214.35186355 154.9375 209.875 C152.49409802 206.76171069 150.00439276 203.9620533 147.125 201.25 C142.98638912 197.25832205 139.80740692 192.74876109 136.58837891 188.01074219 C134.02136859 184.26679176 131.30748544 181.14331828 128 178 C125.4500809 175.50836477 122.91323297 173.00353057 120.375 170.5 C119.70726562 169.84902344 119.03953125 169.19804687 118.3515625 168.52734375 C115.04392302 165.25278066 112.04680361 162.24750222 110 158 C110 157.34 110 156.68 110 156 C109.43796875 155.77054688 108.8759375 155.54109375 108.296875 155.3046875 C98.77821195 149.89782788 91.83018046 137.6620692 86.53125 128.4453125 C80.54154904 118.88012678 71.24650521 111.23788046 62.5625 104.1875 C60.24387787 102.20818842 58.49091066 100.65050784 57 98 C56.8125 95.25 56.8125 95.25 57 93 C56.01 92.67 55.02 92.34 54 92 C53.34 91.01 52.68 90.02 52 89 C50.989375 88.54625 49.97875 88.0925 48.9375 87.625 C42.99053157 84.46332058 39.36152732 77.65590312 36 72 C36 71.34 36 70.68 36 70 C35.484375 69.773125 34.96875 69.54625 34.4375 69.3125 C31.10520073 67.51818501 28.07971886 65.19979919 25 63 C25 117.12 25 171.24 25 227 C19.79509227 229.08196309 16.33491275 229.39806243 10.875 229.4375 C10.06417969 229.47037109 9.25335937 229.50324219 8.41796875 229.53710938 C7.63808594 229.54419922 6.85820313 229.55128906 6.0546875 229.55859375 C4.99483643 229.57877563 4.99483643 229.57877563 3.91357422 229.59936523 C2 229 2 229 0.4033699 226.9729538 C-1.37287925 223.21007799 -1.41061713 219.9067267 -1.36749268 215.83337402 C-1.37076152 215.01495765 -1.37403036 214.19654128 -1.37739825 213.35332441 C-1.38467753 210.6123138 -1.37052233 207.87183732 -1.35644531 205.13085938 C-1.3572363 203.16421925 -1.35933393 201.19757928 -1.36264038 199.23094177 C-1.36777957 193.88488264 -1.3542216 188.53901569 -1.33711338 183.19298744 C-1.32205706 177.58272401 -1.32325064 171.97246288 -1.32244873 166.36218262 C-1.31875323 156.92322526 -1.30378367 147.48434047 -1.28125 138.04541016 C-1.25251806 125.98674338 -1.24203833 113.92813547 -1.2375679 101.86943817 C-1.2335606 91.45411538 -1.22105305 81.03880502 -1.20722103 70.62349129 C-1.20315176 67.30308689 -1.20021083 63.98268292 -1.19742584 60.66227722 C-1.19246571 55.40259697 -1.18215317 50.14295068 -1.16798782 44.88328743 C-1.1635324 42.96993887 -1.16064261 41.0565858 -1.15958023 39.14323235 C-1.15070573 26.06847052 -0.72112488 13.05491779 0 0 Z " fill="#F2701B" transform="translate(1075,141)"/>
<path d="M0 0 C8.35545867 8.35545867 16.25957124 16.96845111 23.65625 26.1875 C26.33208278 29.39849934 29.14359707 32.45027636 32 35.5 C36.45874444 40.26088994 40.6379783 45.1646782 44.72265625 50.25390625 C47.2182639 53.26318958 49.83763481 56.13940286 52.5 59 C55.95161936 62.70861688 59.26522148 66.48505895 62.4375 70.4375 C66.28110057 75.21621628 70.36960164 79.69157687 74.55834961 84.16381836 C78.4599667 88.35329526 82.07324797 92.72172936 85.65625 97.1875 C88.33208278 100.39849934 91.14359707 103.45027636 94 106.5 C98.45874444 111.26088994 102.6379783 116.1646782 106.72265625 121.25390625 C109.2182639 124.26318958 111.83763481 127.13940286 114.5 130 C117.95161936 133.70861688 121.26522148 137.48505895 124.4375 141.4375 C128.29402536 146.23396702 132.39195118 150.73302998 136.61328125 155.20556641 C140.4740515 159.32810482 143.90885321 163.66145116 147.18359375 168.26953125 C148.89787868 170.28342487 148.89787868 170.28342487 151.61352539 170.1081543 C152.40106201 170.07246338 153.18859863 170.03677246 154 170 C154.00146656 169.23192615 154.00293312 168.46385229 154.00444412 167.67250347 C154.04155807 148.95024749 154.10063349 130.22817738 154.18390274 111.50606823 C154.22364681 102.45204066 154.25606278 93.39809943 154.27099609 84.34399414 C154.28403668 76.44888014 154.31106253 68.55395646 154.35461307 60.65894967 C154.37717396 56.48178212 154.39291392 52.30484885 154.39188385 48.12761497 C154.39113404 44.18846058 154.40921227 40.24982301 154.44116783 36.31080246 C154.44962261 34.87220813 154.4514471 33.43355553 154.44580269 31.99494743 C154.41591405 23.1993403 155.32872175 16.04359645 159 8 C161.58445773 7.8918134 164.16437352 7.81262763 166.75 7.75 C167.84441406 7.69972656 167.84441406 7.69972656 168.9609375 7.6484375 C172.56477804 7.58291313 174.55396072 7.65623724 177.453125 9.890625 C180.48548118 14.02565616 180.13725962 17.62921026 180.12025452 22.59255981 C180.12153615 23.94269537 180.12153615 23.94269537 180.12284368 25.32010639 C180.12449865 28.35421189 180.11897682 31.38826283 180.11352539 34.42236328 C180.1132435 36.59011839 180.1134013 38.7578736 180.1139679 40.92562866 C180.11425578 46.8261568 180.10836045 52.72666477 180.10139394 58.62718821 C180.09515896 64.78782456 180.09455649 70.94846132 180.09336853 77.10910034 C180.09025564 88.78214104 180.08204282 100.45517241 180.07201904 112.12820899 C180.0608566 125.41457949 180.05534712 138.70094973 180.05032361 151.987324 C180.03986017 179.32488784 180.02226154 206.6624434 180 234 C177.525 234.99 177.525 234.99 175 236 C174.26136719 235.12859375 173.52273438 234.2571875 172.76171875 233.359375 C167.70737422 227.41827389 162.62428371 221.52558475 157.3125 215.8125 C153.94402765 212.18729704 150.72077237 208.4876668 147.625 204.625 C143.57333783 199.58583594 139.22645384 194.89534229 134.79736328 190.19189453 C130.77656357 185.898737 127.05002919 181.43753649 123.375 176.84375 C120.5353545 173.44364815 117.53610629 170.224149 114.5 167 C109.87379473 162.08693945 105.52729122 157.04878041 101.30859375 151.77734375 C98.64720542 148.57557201 95.84537754 145.53765082 93 142.5 C89.35111551 138.60423719 85.84301562 134.66665716 82.5 130.5 C78.16072656 125.09563218 73.49603585 120.05044877 68.7734375 114.984375 C64.46894486 110.36646239 60.35687595 105.59238393 56.26171875 100.7890625 C55.23715504 99.58839157 54.21240999 98.38787535 53.1875 97.1875 C52.6709082 96.58204346 52.15431641 95.97658691 51.62207031 95.3527832 C47.61972096 90.6798341 43.49646568 86.13966463 39.3203125 81.62109375 C36.26490046 78.16960978 33.50828237 74.52090545 30.7890625 70.80078125 C30.19867187 70.20652344 29.60828125 69.61226563 29 69 C27.68 69 26.36 69 25 69 C25 122.46 25 175.92 25 231 C16.75 231 8.5 231 0 231 C0 154.77 0 78.54 0 0 Z " fill="#ED8527" transform="translate(635,138)"/>
<path d="M0 0 C4.06596253 0.81319251 6.52376345 2.49113541 9.125 5.625 C12.88028037 13.02918391 12.54632353 20.36107201 12.50595093 28.51063538 C12.50941027 30.03048092 12.5141767 31.55032395 12.52013266 33.07016176 C12.53263416 37.2344205 12.52647619 41.39847247 12.51717401 45.56273186 C12.51038043 50.05835045 12.52086624 54.55393373 12.52911377 59.04954529 C12.54244966 67.85136729 12.53957409 76.65311252 12.53087585 85.45493753 C12.52409958 92.60810702 12.52318233 99.76125502 12.5264473 106.9144268 C12.526907 107.93265476 12.52736669 108.95088272 12.52784032 109.99996607 C12.5287995 112.06848968 12.52977214 114.13701329 12.5307581 116.20553689 C12.53931146 135.59913176 12.52947847 154.99268406 12.513357 174.38627195 C12.49995185 191.02747408 12.50228364 207.66861345 12.51611328 224.30981445 C12.53216655 243.63575872 12.53848962 262.96166571 12.52927649 282.28761572 C12.52832084 284.34820679 12.52737773 286.40879787 12.5264473 288.46938896 C12.52598447 289.48323665 12.52552164 290.49708435 12.52504479 291.54165469 C12.5224543 298.68688293 12.52682714 305.83208752 12.53388596 312.97731209 C12.54229825 321.68393124 12.54002641 330.39046925 12.52404372 339.09707911 C12.51615769 343.53945687 12.51307512 347.98169931 12.52299118 352.42407608 C12.53193155 356.4908307 12.52701613 360.55732459 12.51105852 364.62405556 C12.50770796 366.09499188 12.50941101 367.56595024 12.51668589 369.03687239 C12.58049972 383.01170906 12.58049972 383.01170906 9.125 388.625 C5.77734419 390.85677054 4.65438715 390.87133323 0.75 390.8125 C-0.18585938 390.80605469 -1.12171875 390.79960938 -2.0859375 390.79296875 C-4.77355718 390.6311093 -7.24504499 390.17854396 -9.875 389.625 C-9.87923194 388.75255268 -9.88346388 387.88010536 -9.88782406 386.98122025 C-9.99106614 365.76628479 -10.09969424 344.5513829 -10.21433926 323.33650589 C-10.26965009 313.07721345 -10.32312861 302.81791753 -10.37231445 292.55859375 C-10.41518247 283.61802641 -10.46146711 274.67748446 -10.51187855 265.73695636 C-10.53845836 261.00172141 -10.56331095 256.26649143 -10.58407402 251.53122711 C-10.60366307 247.076013 -10.6278137 242.6208471 -10.65549088 238.16567612 C-10.66484928 236.52900697 -10.67252891 234.89232724 -10.67841911 233.25564194 C-10.68670086 231.02366686 -10.70098332 228.79180817 -10.71678162 226.55987549 C-10.72323417 225.3099242 -10.72968672 224.05997292 -10.7363348 222.77214432 C-10.85016817 220.18858297 -11.10787118 218.07701668 -11.875 215.625 C-18.33601424 214.08035862 -22.90969889 215.53249123 -29.125 217.5625 C-46.29971741 222.78423156 -46.29971741 222.78423156 -55.25 219.125 C-62.57189879 214.85140193 -65.10346772 206.18090923 -67.875 198.625 C-68.535 199.285 -69.195 199.945 -69.875 200.625 C-72.20657492 200.97041851 -74.54008361 201.30294257 -76.875 201.625 C-79.19103136 202.52567886 -80.51396086 203.20435003 -82.12890625 205.0859375 C-86.44827425 208.89316567 -94.33856607 209.94907757 -100 209.9375 C-105.93811838 208.88739064 -110.16013365 202.97711437 -113.875 198.625 C-115.07772819 196.21954362 -114.97571472 194.67503047 -114.9375 192 C-114.92847656 191.18273437 -114.91945313 190.36546875 -114.91015625 189.5234375 C-114.89275391 188.58371094 -114.89275391 188.58371094 -114.875 187.625 C-108.73872987 187.10183665 -105.72347409 190.15146632 -100.875 193.625 C-100.875 189.665 -100.875 185.705 -100.875 181.625 C-92.89132883 181.83509661 -87.64660764 183.30714355 -80.69921875 187.25 C-76.97504734 189.06315123 -73.80218799 190.07744019 -69.6953125 189.11328125 C-66.98747973 186.89936647 -66.05572261 183.96192709 -64.75 180.8125 C-62.0444479 174.83120808 -59.36652926 171.77831796 -53.20703125 169.32421875 C-45.82581179 167.1110893 -37.82449788 165.58937717 -30.70703125 169.2578125 C-28.7208422 170.56823477 -26.73515078 171.87941165 -24.75 173.19140625 C-20.67879597 175.22147674 -18.00606178 174.69507307 -13.73828125 173.50390625 C-11.69149412 172.77312036 -11.69149412 172.77312036 -10.875 170.625 C-10.77536245 168.59281745 -10.74154357 166.55730837 -10.73696899 164.52268982 C-10.73151566 163.2203389 -10.72606232 161.91798798 -10.72044373 160.57617188 C-10.71932385 159.12426763 -10.71827334 157.67236333 -10.71728516 156.22045898 C-10.71261796 154.69783888 -10.70747455 153.17522017 -10.70188904 151.65260315 C-10.69059621 148.36775785 -10.68216756 145.08292169 -10.67576981 141.79806328 C-10.66509547 136.59923291 -10.64485018 131.40046776 -10.62265015 126.20167542 C-10.56071321 111.41597496 -10.50677201 96.63027749 -10.47363281 81.84448242 C-10.45525966 73.68279112 -10.42628628 65.5212083 -10.3856281 57.35959679 C-10.36459613 53.04170497 -10.34910632 48.72394968 -10.34682083 44.40600395 C-10.34466575 40.33888171 -10.32870914 36.27204325 -10.30243111 32.20500755 C-10.29526819 30.71718666 -10.29312247 29.22933127 -10.29653358 27.74149704 C-10.3143259 18.50055463 -9.85195704 10.65503086 -5.0625 2.5625 C-2.875 0.625 -2.875 0.625 0 0 Z " fill="#FC7E02" transform="translate(573.875,143.375)"/>
<path d="M0 0 C1.24100464 -0.00137466 2.48200928 -0.00274933 3.76062012 -0.00416565 C5.13816858 -0.00062651 6.51571679 0.0030083 7.89326477 0.00672913 C9.3419647 0.00701116 10.79066478 0.00685295 12.23936462 0.00628662 C16.17502435 0.00599928 20.11065371 0.01188588 24.04630637 0.01886058 C28.15828024 0.02510454 32.27025478 0.02569874 36.38223267 0.02688599 C44.17011069 0.02999622 51.95797471 0.03820547 59.74584657 0.04823548 C68.61152546 0.05940616 77.47720501 0.06490948 86.34288919 0.06993091 C104.58145028 0.08038833 122.81999749 0.09818285 141.05854797 0.12025452 C141.05854797 7.71025452 141.05854797 15.30025452 141.05854797 23.12025452 C138.45448059 23.1421283 138.45448059 23.1421283 135.79780579 23.16444397 C130.05804179 23.21611705 124.31851934 23.28140894 118.57901382 23.35596943 C115.09955924 23.40067247 111.62022172 23.4399283 108.14057922 23.46669006 C104.13897624 23.4977059 100.13800429 23.55249449 96.13667297 23.60853577 C94.88863892 23.61492569 93.64060486 23.62131561 92.35475159 23.62789917 C91.1938501 23.64769333 90.03294861 23.66748749 88.83686829 23.68788147 C87.3046463 23.70453606 87.3046463 23.70453606 85.74147034 23.7215271 C82.65026786 24.18093181 81.28144777 24.95076412 79.05854797 27.12025452 C77.85724647 30.72415904 77.90529993 34.01822338 77.90032959 37.77008057 C77.89539161 38.55668589 77.89045364 39.34329122 77.88536602 40.15373307 C77.86996961 42.79776345 77.8616246 45.4417695 77.85322571 48.08583069 C77.84364887 49.97787694 77.8336389 51.86992105 77.82322693 53.76196289 C77.79615076 58.90623556 77.77515588 64.05051743 77.75522494 69.19482207 C77.73338212 74.56803938 77.7059851 79.94122824 77.6791687 85.31442261 C77.62921876 95.49285615 77.58428847 105.67130546 77.54114634 115.84976989 C77.49179362 127.43609487 77.43686821 139.02239132 77.38146675 150.60868871 C77.26761137 174.44585089 77.16097774 198.28304074 77.05854797 222.12025452 C69.46854797 222.12025452 61.87854797 222.12025452 54.05854797 222.12025452 C54.05854797 156.45025452 54.05854797 90.78025452 54.05854797 23.12025452 C33.26854797 23.12025452 12.47854797 23.12025452 -8.94145203 23.12025452 C-13.2197129 7.43329799 -13.2197129 7.43329799 -10.62895203 2.74525452 C-7.46216106 -0.3042479 -4.17032723 -0.00355527 0 0 Z " fill="#ED6216" transform="translate(1292.9414520263672,145.87974548339844)"/>
<path d="M0 0 C1.32 0 2.64 0 4 0 C11.53775527 15.9755169 19.02716623 31.97006931 26.3125 48.0625 C31.80324617 60.19049395 37.34971007 72.29140055 42.9375 84.375 C48.6341224 96.69482571 54.30523979 109.02561831 59.9375 121.375 C67.78250901 138.572829 75.7338998 155.72084541 83.69161987 172.866745 C88.81263773 183.90274605 93.90803214 194.95056959 99 206 C96.82575883 208.50037734 95.26954202 209.43628586 92 210 C83.10411367 198.47508885 76.77622317 186.80026007 71.0546875 173.43603516 C69.65626268 170.20606227 68.16971595 167.03780591 66.625 163.875 C66.20476562 163.00617188 65.78453125 162.13734375 65.3515625 161.2421875 C63.55103097 158.25517854 61.69038988 155.58441887 58.29321289 154.40991211 C55.25819069 153.86740149 52.30551417 153.7758706 49.22265625 153.68359375 C48.52805298 153.66258606 47.83344971 153.64157837 47.11779785 153.61993408 C44.76615933 153.55228175 42.41444135 153.49361372 40.0625 153.4375 C39.24474091 153.41765045 38.42698181 153.3978009 37.58444214 153.37734985 C21.28982653 152.99710394 4.99076077 152.80264107 -11.30789185 152.71389771 C-14.05436748 152.69835346 -16.80052081 152.67354166 -19.54684448 152.64083862 C-23.44659628 152.59523283 -27.34607812 152.58328796 -31.24609375 152.57421875 C-32.41547485 152.55675598 -33.58485596 152.53929321 -34.78967285 152.52130127 C-43.04504235 152.54299479 -48.23118009 153.84470891 -54.6875 159.25 C-62.01312417 167.96155306 -66.28902772 178.73212452 -71.06152344 188.96313477 C-72.09413128 191.17139672 -73.13990241 193.37303684 -74.1875 195.57421875 C-74.49598877 196.2451506 -74.80447754 196.91608246 -75.12231445 197.60734558 C-77.39655028 202.3568332 -80.09139103 206.66665314 -85.01953125 208.92578125 C-86.6796875 209.28385417 -88.33984375 209.64192708 -90 210 C-89.35241741 206.22415492 -88.28275661 202.8638233 -86.8828125 199.30078125 C-86.22889526 197.63196899 -86.22889526 197.63196899 -85.56176758 195.92944336 C-85.08763428 194.73585205 -84.61350098 193.54226074 -84.125 192.3125 C-83.87946381 191.69230988 -83.63392761 191.07211975 -83.38095093 190.43313599 C-73.67812035 165.93926684 -62.98215991 141.94120039 -51.93737793 118.02972412 C-51.05418477 116.11732741 -50.17188073 114.20452413 -49.29003906 112.29150391 C-45.15595485 103.32335123 -45.15595485 103.32335123 -43.24438477 99.19848633 C-40.78632948 93.89234911 -38.35341606 88.57649573 -35.95703125 83.2421875 C-35.46050049 82.14221436 -34.96396973 81.04224121 -34.45239258 79.90893555 C-33.51264226 77.82455069 -32.57850228 75.73762341 -31.65112305 73.64770508 C-26.11696001 61.40309143 -26.11696001 61.40309143 -20 59 C-17.19544212 67.41367364 -20.10588572 73.71938409 -23.50100708 81.51187134 C-24.32809288 83.41080011 -25.13649344 85.31681545 -25.94116211 87.2253418 C-28.61648998 93.54958239 -31.36611078 99.83975532 -34.140625 106.12109375 C-34.63264404 107.24918457 -35.12466309 108.37727539 -35.6315918 109.53955078 C-36.54981907 111.63983313 -37.48237741 113.73394129 -38.43286133 115.81982422 C-42.20585915 124.4485124 -43.15521081 131.16112431 -45 141 C-14.97 141 15.06 141 46 141 C46.10509061 129.40727689 46.10509061 129.40727689 41.6484375 120.06640625 C40.7207288 118.41976425 39.79602765 116.77142492 38.87402344 115.12158203 C38.39622437 114.28040833 37.91842529 113.43923462 37.42614746 112.5725708 C35.08057183 108.34148002 32.96741673 104.00167433 30.8515625 99.65234375 C30.42584457 98.78242294 30.00012665 97.91250214 29.56150818 97.01622009 C28.2459406 94.32495607 26.93512807 91.63141566 25.625 88.9375 C25.17210602 88.00876068 24.71921204 87.08002136 24.25259399 86.12313843 C16.9641763 71.17386699 9.83518803 56.16251912 3 41 C-3.95980807 42.1015889 -3.95980807 42.1015889 -9.75 45.8125 C-10.30300781 46.33714844 -10.85601563 46.86179688 -11.42578125 47.40234375 C-11.94527344 47.92957031 -12.46476563 48.45679688 -13 49 C-13.50917969 49.49628906 -14.01835938 49.99257812 -14.54296875 50.50390625 C-15.71162019 51.65291649 -16.85855128 52.82396193 -18 54 C-18.99 53.01 -19.98 52.02 -21 51 C-18.33304779 44.37878379 -15.66351605 37.75861194 -12.9921875 31.13916016 C-12.08371489 28.88712144 -11.1758333 26.63484422 -10.26855469 24.38232422 C-8.96444478 21.1448785 -7.65821265 17.90829615 -6.3515625 14.671875 C-5.74364365 13.16074127 -5.74364365 13.16074127 -5.1234436 11.61907959 C-4.55307877 10.20806976 -4.55307877 10.20806976 -3.97119141 8.76855469 C-3.63809967 7.94248718 -3.30500793 7.11641968 -2.96182251 6.26531982 C-2.05437412 4.12806393 -1.06308688 2.06356741 0 0 Z " fill="#FB6C04" transform="translate(940,152)"/>
<path d="M0 0 C3.13581788 0.91486433 4.14580285 2.97951269 6.03515625 5.59375 C7.20651264 7.78173271 8.31068608 10.00637704 9.36328125 12.25390625 C9.66914658 12.90333694 9.9750119 13.55276764 10.29014587 14.22187805 C11.29573408 16.36335911 12.29075627 18.50955335 13.28515625 20.65625 C13.99370579 22.17342891 14.70244966 23.69051709 15.41137695 25.20751953 C21.16692155 37.5631263 26.71432396 50.00934407 32.21240234 62.48120117 C37.01668799 73.36987052 41.96749957 84.18197259 47.05151367 94.94287109 C47.5488501 96.00070801 48.04618652 97.05854492 48.55859375 98.1484375 C48.99091309 99.06093262 49.42323242 99.97342773 49.86865234 100.91357422 C51.12460539 103.79926959 52.26232278 106.53856901 53.03515625 109.59375 C52.37515625 110.58375 51.71515625 111.57375 51.03515625 112.59375 C42.17697443 110.06284091 42.17697443 110.06284091 39.03515625 106.59375 C37.37997251 103.3868315 35.96407634 100.11589178 34.5390625 96.80078125 C31.76622298 90.887791 28.0084632 86.42321119 22.03515625 83.59375 C19.12401738 82.71943505 16.48754033 82.45454405 13.45361328 82.41674805 C12.55232697 82.40391281 11.65104065 82.39107758 10.72244263 82.37785339 C9.75571625 82.37046646 8.78898987 82.36307953 7.79296875 82.35546875 C6.79184052 82.347397 5.79071228 82.33932526 4.75924683 82.33100891 C2.64273805 82.31719121 0.5262072 82.30645873 -1.59033203 82.29858398 C-4.82106749 82.28135016 -8.05078489 82.23744028 -11.28125 82.19335938 C-13.33983624 82.1832336 -15.39843116 82.17471714 -17.45703125 82.16796875 C-18.41970917 82.15046066 -19.38238708 82.13295258 -20.37423706 82.11491394 C-26.05013517 82.13320988 -29.57702931 82.613535 -33.96484375 86.59375 C-35.47744568 88.77209665 -35.47744568 88.77209665 -36.37890625 91.21875 C-36.74757813 92.09015625 -37.11625 92.9615625 -37.49609375 93.859375 C-37.85703125 94.76171875 -38.21796875 95.6640625 -38.58984375 96.59375 C-43.17049387 107.80513141 -43.17049387 107.80513141 -46.96484375 110.59375 C-51.50635458 111.72912771 -53.92840595 111.87752402 -57.96484375 109.59375 C-53.30326096 98.85487092 -48.53340493 88.17204285 -43.65234375 77.53125 C-42.96612864 76.03345514 -42.27993119 74.53565219 -41.59375 73.0378418 C-39.76846101 69.05532889 -37.94065773 65.07397444 -36.11224365 61.09289551 C-34.94069545 58.54115273 -33.77028722 55.98888952 -32.60009766 53.43652344 C-30.61118367 49.09917985 -28.6190189 44.76334182 -26.62466431 40.42849731 C-25.86484039 38.77611772 -25.10583745 37.1233603 -24.3477478 35.47018433 C-20.53014667 27.14812348 -16.66286372 18.85267484 -12.62109375 10.63671875 C-12.29741821 9.96917068 -11.97374268 9.30162262 -11.64025879 8.61384583 C-8.53956128 2.38455917 -7.16229011 0.33120417 0 0 Z " fill="#1A1A1A" transform="translate(794.96484375,423.40625)"/>
<path d="M0 0 C5.030247 1.64626265 7.53728718 4.55226767 10.14404297 9.10644531 C10.65080566 10.21084961 11.15756836 11.31525391 11.6796875 12.453125 C12.10689842 13.37237511 12.10689842 13.37237511 12.54273987 14.31019592 C13.47670986 16.32704977 14.3946442 18.35076818 15.3125 20.375 C15.97314525 21.81055195 16.63470262 23.24568444 17.29711914 24.68041992 C19.01976163 28.41970483 20.72830294 32.16523957 22.43182373 35.91326904 C23.39927779 38.0409399 24.36926859 40.16743142 25.34033203 42.29345703 C28.11385258 48.36692453 30.87940273 54.44389938 33.63121033 60.52723694 C36.71019389 67.33361027 39.81306657 74.12842513 42.9375 80.9140625 C43.68567813 82.54123683 44.4338069 84.16843387 45.18188477 85.7956543 C46.27185879 88.16641487 47.36301754 90.53658824 48.45822144 92.90493774 C49.46374995 95.0796448 50.46473917 97.25638826 51.46484375 99.43359375 C51.76716919 100.08401642 52.06949463 100.73443909 52.38098145 101.40457153 C54.4375 105.89752499 54.4375 105.89752499 54.4375 108.125 C51.02192978 110.22688936 48.41577 110.6121351 44.4375 110.125 C41.09085012 108.5313572 39.75425885 106.96509956 38.44921875 103.50390625 C37.80358319 101.41821112 37.16314989 99.33090003 36.52734375 97.2421875 C34.45947792 91.32764654 31.63102986 86.52885911 26.3125 83.125 C22.54254173 81.81371017 19.26729639 81.00340288 15.27075195 80.94799805 C14.45923172 80.93516281 13.64771149 80.92232758 12.81159973 80.90910339 C11.94177963 80.90171646 11.07195953 80.89432953 10.17578125 80.88671875 C9.27055222 80.878647 8.36532318 80.87057526 7.43266296 80.86225891 C5.51705832 80.8484423 3.6014293 80.83770933 1.68579102 80.82983398 C-0.26252514 80.81833041 -2.21081019 80.79790439 -4.15893555 80.76831055 C-6.98507952 80.72539938 -9.81028843 80.70943139 -12.63671875 80.69921875 C-13.92626717 80.67295662 -13.92626717 80.67295662 -15.24186707 80.64616394 C-22.16854475 80.6706592 -28.30467535 82.33083579 -33.6484375 86.9140625 C-36.27233724 90.65113183 -37.91101927 93.87201971 -39.0625 98.3125 C-40.40768088 103.4716643 -42.1343078 105.20239315 -46.5625 108.125 C-47.861875 109.0840625 -47.861875 109.0840625 -49.1875 110.0625 C-51.5625 111.125 -51.5625 111.125 -53.875 110.3125 C-54.431875 109.920625 -54.98875 109.52875 -55.5625 109.125 C-54.97923073 103.86166468 -53.22874536 99.74518154 -50.984375 95.02734375 C-50.44024963 93.85993652 -50.44024963 93.85993652 -49.88513184 92.66894531 C-49.10599195 90.99915896 -48.32358032 89.33089603 -47.53820801 87.66403198 C-45.45920102 83.25139608 -43.40339518 78.82794698 -41.34375 74.40625 C-40.93127014 73.52259262 -40.51879028 72.63893524 -40.09381104 71.72850037 C-36.58717453 64.20751798 -33.18277441 56.64548437 -29.8125 49.0625 C-28.27236312 45.62117656 -26.7293717 42.18115043 -25.18505859 38.74169922 C-24.03672319 36.18204819 -22.89138227 33.62117771 -21.74853516 31.05908203 C-20.19369108 27.57817505 -18.62156485 24.10548464 -17.03869629 20.63723755 C-16.43789907 19.31409906 -15.84243748 17.98852249 -15.25280762 16.66036987 C-7.97157973 0.27970455 -7.97157973 0.27970455 0 0 Z " fill="#1B1B1B" transform="translate(1268.5625,424.875)"/>
<path d="M0 0 C1.42111391 2.34859594 2.55006763 4.54661286 3.66015625 7.0390625 C4.17385017 8.14399803 4.17385017 8.14399803 4.69792175 9.27125549 C5.44156439 10.87466956 6.17866745 12.48112887 6.91003418 14.09017944 C8.47107462 17.52364993 10.06358833 20.94218437 11.6546936 24.36180115 C12.48876642 26.15498483 13.32123813 27.94891402 14.15219116 29.74354553 C18.3347326 38.76618593 22.65563295 47.71938183 27.01608276 56.65716553 C28.22360048 59.13336378 29.42657296 61.6117316 30.62915039 64.09033203 C31.38258518 65.63723432 32.13639831 67.18395241 32.890625 68.73046875 C33.24587753 69.46219299 33.60113007 70.19391724 33.96714783 70.94781494 C36.42702914 75.96816309 39.11609008 80.79945276 42.09277344 85.53637695 C43 88 43 88 42 95 C13.62 95 -14.76 95 -44 95 C-43.05467808 90.27339039 -41.54549391 86.33854262 -39.59765625 81.984375 C-39.24807861 81.19197418 -38.89850098 80.39957336 -38.53833008 79.5831604 C-37.38432039 76.97004529 -36.2233773 74.36007048 -35.0625 71.75 C-34.25720133 69.92943347 -33.45244017 68.1086291 -32.64819336 66.28759766 C-30.96416396 62.47563493 -29.27777904 58.6647269 -27.58984375 54.85449219 C-23.78834864 46.2678006 -20.01669202 37.66801174 -16.24435425 29.06848145 C-15.08109389 26.41737603 -13.91680473 23.76672482 -12.75219727 21.11621094 C-12.0340098 19.48112292 -11.31582911 17.84603193 -10.59765625 16.2109375 C-10.11594971 15.11502792 -10.11594971 15.11502792 -9.62451172 13.99697876 C-7.72673134 9.67424977 -5.85364278 5.34184679 -4 1 C-4.99 0.67 -5.98 0.34 -7 0 C-2.83026259 -1.38991247 -2.83026259 -1.38991247 0 0 Z " fill="#FDF6E9" transform="translate(944,193)"/>
<path d="M0 0 C2.30988759 1.1549438 3.33655673 1.82018837 4.875 3.9375 C5.27823961 6.776798 5.4753532 9.39958158 5.54980469 12.25366211 C5.59922274 13.61581423 5.59922274 13.61581423 5.64963913 15.00548458 C6.12245858 30.05893957 6.05953699 45.13242399 6.07518864 60.19182324 C6.07815116 62.9028418 6.08226079 65.61385644 6.08669281 68.32487297 C6.10029049 76.84110443 6.11000095 85.35732658 6.1138947 93.87356812 C6.11839088 103.64617552 6.1360432 113.41864415 6.1648953 123.19120938 C6.18655555 130.79515727 6.19660089 138.39906615 6.19793582 146.00304455 C6.19897846 150.52478017 6.20477316 155.04638393 6.22275543 159.56808662 C6.23931744 163.81270388 6.24135256 168.057091 6.23261642 172.3017292 C6.23185105 173.84960551 6.23612204 175.3974947 6.24607468 176.9453392 C6.30084246 185.99962419 5.60077421 194.24380965 2.875 202.9375 C0.38138429 201.73368552 -1.80643083 200.48321278 -4.125 198.9375 C-4.125 198.2775 -4.125 197.6175 -4.125 196.9375 C-4.70604492 196.68315186 -5.28708984 196.42880371 -5.88574219 196.16674805 C-8.36679642 194.80476505 -9.98018103 193.2943556 -11.953125 191.26953125 C-12.67113281 190.54056641 -13.38914062 189.81160156 -14.12890625 189.06054688 C-14.87011719 188.29806641 -15.61132812 187.53558594 -16.375 186.75 C-20.54586839 182.47911967 -24.68153847 178.25355653 -29.234375 174.38671875 C-36.0389599 168.52420371 -41.28435971 161.55810433 -46.4375 154.25 C-51.18235254 147.5911012 -56.04535865 141.06196118 -61.1015625 134.63671875 C-66.125 127.9355695 -66.125 127.9355695 -66.125 124.25 C-65.125 121.9375 -65.125 121.9375 -62.5625 120.79296875 C-61.758125 120.51066406 -60.95375 120.22835937 -60.125 119.9375 C-58.93403249 121.10062671 -57.74747296 122.26826672 -56.5625 123.4375 C-55.90121094 124.0871875 -55.23992187 124.736875 -54.55859375 125.40625 C-52.57914269 127.46513328 -50.72027827 129.55615972 -48.86328125 131.72265625 C-46.37394185 134.59273387 -43.79829666 137.28259239 -41.046875 139.90234375 C-40.36109375 140.55783203 -39.6753125 141.21332031 -38.96875 141.88867188 C-37.56660884 143.21887482 -36.15499778 144.53916264 -34.734375 145.84960938 C-30.45843866 149.97572598 -28.15125031 153.29122179 -26.72241211 159.09960938 C-26.24859383 161.17638071 -26.24859383 161.17638071 -23.9375 162.5 C-20.26674643 163.07100611 -16.83998103 163.06343156 -13.125 162.9375 C-12.66253292 161.60559481 -12.20530845 160.2718693 -11.75 158.9375 C-11.49476562 158.195 -11.23953125 157.4525 -10.9765625 156.6875 C-10.69554687 155.78 -10.41453125 154.8725 -10.125 153.9375 C-9.78237625 152.84705383 -9.4397525 151.75660767 -9.08674622 150.63311768 C-7.58448414 144.5189761 -7.85792826 138.31588502 -7.88549805 132.05761719 C-7.88438357 130.66392922 -7.88232327 129.27024173 -7.87939453 127.8765564 C-7.8746932 124.8897107 -7.87577026 121.90294379 -7.88117027 118.91609955 C-7.88880746 114.19280878 -7.87809566 109.46966836 -7.8639679 104.74639893 C-7.82630031 91.32050937 -7.80806529 77.8946901 -7.81958008 64.46875 C-7.82579184 57.04278876 -7.81424634 49.61707198 -7.78313476 42.19117093 C-7.76446989 37.49544539 -7.76780651 32.8004119 -7.78730237 28.1046977 C-7.79417608 25.18717863 -7.78024477 22.27003653 -7.76035309 19.35258865 C-7.75288919 17.35432413 -7.77026935 15.35601531 -7.78834534 13.3578186 C-7.77594818 12.16907135 -7.76355103 10.9803241 -7.7507782 9.7555542 C-7.75052659 8.20593554 -7.75052659 8.20593554 -7.75026989 6.62501144 C-6.84167617 2.71972823 -4.19550882 -0.12339732 0 0 Z " fill="#FC6104" transform="translate(1244.125,152.0625)"/>
<path d="M0 0 C8.47962923 1.73664246 15.54187186 11.16182644 20.3671875 17.89453125 C22.0325485 20.13519982 22.0325485 20.13519982 24.4140625 22.3984375 C30.99152457 29.01564254 36.23532837 37.00764758 41 45 C37.45758001 45 37.15581893 44.54599081 34.70703125 42.18359375 C34.08054687 41.58740234 33.4540625 40.99121094 32.80859375 40.37695312 C32.14988281 39.73693359 31.49117187 39.09691406 30.8125 38.4375 C29.45522914 37.14368933 28.09716439 35.85071095 26.73828125 34.55859375 C26.08939941 33.93839355 25.44051758 33.31819336 24.77197266 32.67919922 C21.60619636 29.67917037 18.31861254 26.82836296 15 24 C13.99453125 23.13568359 13.99453125 23.13568359 12.96875 22.25390625 C11.31494938 20.83308151 9.65785866 19.4160876 8 18 C6.49398684 21.01202632 6.84835128 24.12005787 6.84609985 27.42431641 C6.8417176 28.1989281 6.83733535 28.97353979 6.8328203 29.77162457 C6.81940705 32.38160628 6.81324768 34.9915542 6.80712891 37.6015625 C6.79922967 39.46738336 6.79096083 41.33320268 6.78234863 43.19902039 C6.75609884 49.34099869 6.74081392 55.4829839 6.7265625 61.625 C6.72120325 63.73904424 6.71582574 65.85308843 6.71043015 67.96713257 C6.6887934 76.76343698 6.67005828 85.55973954 6.65880775 94.35606384 C6.64258123 106.96045241 6.60944392 119.56453206 6.55240691 132.16880417 C6.51367333 141.03092323 6.49417076 149.89295981 6.48888719 158.75516129 C6.48523725 164.04738408 6.47325448 169.33927762 6.44078445 174.63140869 C6.41064541 179.61536911 6.40441289 184.59880207 6.41616821 189.58283424 C6.41638849 191.40729554 6.40812182 193.23178172 6.39051437 195.05615807 C6.30339089 204.60724705 6.29022299 212.84792177 12 221 C17.94514955 214.26216384 18.29778495 208.14233473 18.30297852 199.52954102 C18.31141785 198.48606003 18.31985718 197.44257904 18.32855225 196.36747742 C18.35435169 192.91294887 18.36649562 189.45850663 18.37890625 186.00390625 C18.39510927 183.57567189 18.41229213 181.14744389 18.43040466 178.71922302 C18.47613617 172.30485046 18.51086411 165.89046853 18.54260254 159.47601318 C18.64167369 139.99029781 18.7797001 120.50495126 18.97220612 101.01993561 C18.99803904 98.21306786 19.0180281 95.4062326 19.03582764 92.5993042 C19.06575924 88.19950074 19.13534766 83.8015274 19.21484375 79.40234375 C19.21891739 78.21153702 19.22299103 77.02073029 19.22718811 75.7938385 C19.39936545 68.88858521 20.60983766 64.41068612 25 59 C28.20610865 60.5325904 30.60129099 62.24116189 33.25 64.625 C34.30960938 65.57246094 34.30960938 65.57246094 35.390625 66.5390625 C35.92171875 67.02117187 36.4528125 67.50328125 37 68 C36.67 68.66 36.34 69.32 36 70 C31.79774498 68.15100779 28.94233261 65.81595186 25 63 C25 117.12 25 171.24 25 227 C19.79509227 229.08196309 16.33491275 229.39806243 10.875 229.4375 C10.06417969 229.47037109 9.25335937 229.50324219 8.41796875 229.53710938 C7.63808594 229.54419922 6.85820313 229.55128906 6.0546875 229.55859375 C4.99483643 229.57877563 4.99483643 229.57877563 3.91357422 229.59936523 C2 229 2 229 0.4033699 226.9729538 C-1.37287925 223.21007799 -1.41061713 219.9067267 -1.36749268 215.83337402 C-1.37076152 215.01495765 -1.37403036 214.19654128 -1.37739825 213.35332441 C-1.38467753 210.6123138 -1.37052233 207.87183732 -1.35644531 205.13085938 C-1.3572363 203.16421925 -1.35933393 201.19757928 -1.36264038 199.23094177 C-1.36777957 193.88488264 -1.3542216 188.53901569 -1.33711338 183.19298744 C-1.32205706 177.58272401 -1.32325064 171.97246288 -1.32244873 166.36218262 C-1.31875323 156.92322526 -1.30378367 147.48434047 -1.28125 138.04541016 C-1.25251806 125.98674338 -1.24203833 113.92813547 -1.2375679 101.86943817 C-1.2335606 91.45411538 -1.22105305 81.03880502 -1.20722103 70.62349129 C-1.20315176 67.30308689 -1.20021083 63.98268292 -1.19742584 60.66227722 C-1.19246571 55.40259697 -1.18215317 50.14295068 -1.16798782 44.88328743 C-1.1635324 42.96993887 -1.16064261 41.0565858 -1.15958023 39.14323235 C-1.15070573 26.06847052 -0.72112488 13.05491779 0 0 Z " fill="#E77F3B" transform="translate(1075,141)"/>
<path d="M0 0 C3.93123072 4.02327644 6.24955369 8.14218741 8.35546875 13.3515625 C8.65494919 14.06775757 8.95442963 14.78395264 9.26298523 15.52185059 C10.24813245 17.88543444 11.21785703 20.25501837 12.1875 22.625 C12.87756964 24.28925174 13.56850542 25.95314458 14.26025391 27.61669922 C16.52324412 33.07110075 18.76286003 38.53495527 21 44 C21.8233813 46.00912427 22.64678667 48.01823869 23.47021484 50.02734375 C26.73259842 57.99128694 29.99434085 65.95545339 33.23510742 73.92822266 C33.79111382 75.29412537 33.79111382 75.29412537 34.35835266 76.68762207 C35.05281299 78.39418382 35.74599792 80.10126535 36.43766785 81.80895996 C36.74682632 82.56825806 37.0559848 83.32755615 37.37451172 84.10986328 C37.64157928 84.76802032 37.90864685 85.42617737 38.18380737 86.10427856 C39.04803279 88.11156286 40.00516854 90.05457208 41 92 C41.36536865 91.11892578 41.7307373 90.23785156 42.10717773 89.33007812 C50.4038824 69.33201317 58.78532121 49.37196795 67.27514648 29.45507812 C67.78811531 28.25087219 67.78811531 28.25087219 68.31144714 27.02233887 C68.97440244 25.46751181 69.63860064 23.91321402 70.30415344 22.35949707 C72.56676747 17.06641473 74.72440096 11.73781843 76.79248047 6.36523438 C78.16894705 3.6690742 79.71175424 1.96814451 82 0 C85.75982637 -0.78660475 89.37296974 -0.20901009 93 1 C90.82672098 7.86629544 88.20481007 14.40552141 85.30859375 20.99609375 C84.85077515 22.04708755 84.39295654 23.09808136 83.92126465 24.18092346 C82.43049444 27.6014634 80.93438206 31.01963072 79.4375 34.4375 C77.35214246 39.20614906 75.26893617 43.9757318 73.1875 48.74609375 C72.66510239 49.94277679 72.14270477 51.13945984 71.60447693 52.37240601 C68.23529003 60.10914961 64.93602074 67.87205762 61.6875 75.66015625 C60.87333152 77.60172913 60.05896534 79.54321912 59.24438477 81.48461914 C58.09766401 84.21838014 56.95644361 86.95372962 55.83322144 89.69723511 C54.80814109 92.20025954 53.76357845 94.69431408 52.71484375 97.1875 C52.42508667 97.91215958 52.13532959 98.63681915 51.83679199 99.38343811 C49.73834452 104.30042978 47.44756085 106.97904268 43 110 C39.4375 110.3125 39.4375 110.3125 36 109 C31.52488636 103.64775367 28.88737885 96.70652369 26.125 90.375 C25.63813721 89.27051514 25.15127441 88.16603027 24.6496582 87.02807617 C17.68313678 71.16290751 10.95453164 55.19198696 4.18603516 39.24169922 C3.70354309 38.10500793 3.22105103 36.96831665 2.72393799 35.79718018 C1.78046224 33.57432796 0.83737863 31.35130926 -0.10528564 29.12811279 C-3.03437455 22.23213952 -6.00204379 15.35482928 -9.08100891 8.52424622 C-11 4.21482963 -11 4.21482963 -11 2 C-7.33211192 -0.34744837 -4.28097846 -0.60083908 0 0 Z " fill="#181818" transform="translate(1107,424)"/>
<path d="M0 0 C2.375 0.3125 2.375 0.3125 5 1 C7.48216306 4.72324459 7.27345241 7.57048179 7.24050903 11.87760925 C7.24221788 12.68871589 7.24392673 13.49982254 7.24568737 14.33550817 C7.24899046 17.06254684 7.23796512 19.78934129 7.22705078 22.51635742 C7.22648684 24.46751398 7.22680288 26.41867096 7.22793579 28.36982727 C7.22851099 33.67530251 7.21672968 38.98068782 7.20278788 44.28614211 C7.19030831 49.82750098 7.18911221 55.36886179 7.18673706 60.91023254 C7.18051412 71.40744529 7.1640923 81.90461651 7.14403808 92.40181094 C7.12170438 104.3508614 7.11069202 116.29991381 7.10064721 128.24897993 C7.07972678 152.83267633 7.044535 177.41633584 7 202 C3.23504123 200.2547564 1.08838476 198.17810657 -1.6875 195.0625 C-2.12247803 194.57595947 -2.55745605 194.08941895 -3.00561523 193.58813477 C-6.7219093 189.39727675 -10.25180512 185.06136976 -13.76953125 180.703125 C-17.36956504 176.34021189 -21.20064853 172.18884012 -25 168 C-30 162.47552448 -30 162.47552448 -30 159 C-31.65927013 157.65747321 -33.32736595 156.32583969 -35 155 C-37.23828125 152.0546875 -37.23828125 152.0546875 -39.3125 148.875 C-40.00988281 147.82054687 -40.70726562 146.76609375 -41.42578125 145.6796875 C-43 143 -43 143 -43 141 C-38.71357676 142.66463038 -35.91382783 145.79075837 -32.75 149 C-32.19570313 149.5465625 -31.64140625 150.093125 -31.0703125 150.65625 C-27 154.7466133 -27 154.7466133 -27 157 C-26.41992188 157.18175781 -25.83984375 157.36351562 -25.2421875 157.55078125 C-20.59309012 159.04677793 -16.37462298 160.81268851 -12 163 C-11.01 163 -10.02 163 -9 163 C-2.28112555 148.210457 -3.20305168 132.28200468 -3.15503526 116.39870238 C-3.13727142 112.41480673 -3.09013347 108.43125924 -3.04582214 104.44758606 C-2.96615738 96.9258786 -2.90923533 89.40420316 -2.86222333 81.88222724 C-2.77730011 68.37867527 -2.65788268 54.87542351 -2.52289122 41.37228566 C-2.47653532 36.63806297 -2.44181076 31.90393742 -2.41666949 27.16955602 C-2.39947131 24.23579075 -2.37445144 21.30212755 -2.34755135 18.36843681 C-2.33170505 16.35698428 -2.32583178 14.34546098 -2.32022095 12.33395386 C-2.30786911 11.14131424 -2.29551727 9.94867462 -2.28279114 8.71989441 C-2.27638013 7.68153537 -2.26996912 6.64317633 -2.26336384 5.57335186 C-2 3 -2 3 0 0 Z " fill="#FC7404" transform="translate(800,154)"/>
<path d="M0 0 C10.06623323 -0.09276471 20.13236442 -0.16379786 30.19893837 -0.20724869 C34.87350205 -0.22810516 39.54777284 -0.25638724 44.22216797 -0.30175781 C48.73498785 -0.34528496 53.24752637 -0.3691517 57.76054001 -0.37950897 C59.48051761 -0.38688804 61.20048017 -0.40129779 62.92033768 -0.42292023 C65.33345821 -0.45204629 67.7454228 -0.45595228 70.15869141 -0.45410156 C71.22037033 -0.47567322 71.22037033 -0.47567322 72.30349731 -0.49768066 C77.3428296 -0.45598406 80.06686826 0.94289995 84 4 C84.99 4.66 85.98 5.32 87 6 C86.67 7.65 86.34 9.3 86 11 C73.79 11 61.58 11 49 11 C49.00523682 13.96347412 49.01047363 16.92694824 49.01586914 19.98022461 C49.03240332 29.74715538 49.04347053 39.51408676 49.05181217 49.28102779 C49.05704149 55.20550715 49.06414001 61.12997222 49.07543945 67.05444336 C49.08626661 72.76672571 49.09227647 78.47899428 49.09487724 84.19128609 C49.0967318 86.37588277 49.100353 88.56047865 49.10573006 90.7450695 C49.11293821 93.79352349 49.11399104 96.84191979 49.11352539 99.89038086 C49.11712067 100.80315796 49.12071594 101.71593506 49.12442017 102.65637207 C49.11405216 108.88594784 49.11405216 108.88594784 48 110 C46.00390625 110.203125 46.00390625 110.203125 43.5625 110.25 C42.75941406 110.27578125 41.95632813 110.3015625 41.12890625 110.328125 C40.42636719 110.21984375 39.72382812 110.1115625 39 110 C36.34355508 106.01533261 36.73506409 102.56221918 36.77294922 97.9387207 C36.77265717 97.01169342 36.77236511 96.08466614 36.77206421 95.12954712 C36.77345896 92.06153037 36.78902707 88.99375565 36.8046875 85.92578125 C36.80841711 83.80014682 36.81126433 81.67451067 36.81326294 79.5488739 C36.82090346 73.95107283 36.8405556 68.35337535 36.8626709 62.75561523 C36.88312027 57.04477337 36.89226271 51.33391479 36.90234375 45.62304688 C36.92380107 34.41531172 36.95898667 23.20768068 37 12 C25.12 12 13.24 12 1 12 C0.67 8.04 0.34 4.08 0 0 Z " fill="#060606" transform="translate(864,424)"/>
<path d="M0 0 C29.04 0 58.08 0 88 0 C88 3.3 88 6.6 88 10 C76.12 10 64.24 10 52 10 C52 42.34 52 74.68 52 108 C45.99280576 110.4028777 45.99280576 110.4028777 42 109 C39.37806348 105.06709522 39.69263834 101.68884322 39.68115234 97.12231445 C39.67110672 96.21479431 39.6610611 95.30727417 39.65071106 94.37225342 C39.61979298 91.36926921 39.60281994 88.36637449 39.5859375 85.36328125 C39.56723279 83.28247808 39.54765991 81.20168255 39.5272522 79.12089539 C39.47585135 73.64155576 39.43626818 68.16219151 39.39910889 62.68273926 C39.35911907 57.09246696 39.30800385 51.50229775 39.2578125 45.91210938 C39.16095905 34.94147858 39.07658442 23.97078969 39 13 C36.58548991 11.79274495 34.934913 11.82836006 32.23828125 11.75390625 C31.28373047 11.72103516 30.32917969 11.68816406 29.34570312 11.65429688 C27.34319646 11.593693 25.34058858 11.53633561 23.33789062 11.48242188 C15.45716612 11.20228881 8.92413702 10.75957766 3 5 C2.01 3.35 1.02 1.7 0 0 Z " fill="#070707" transform="translate(978,425)"/>
<path d="M0 0 C27.72 0 55.44 0 84 0 C84 3.3 84 6.6 84 10 C72.12 10 60.24 10 48 10 C48.01571045 14.33862183 48.01571045 14.33862183 48.03173828 18.76489258 C48.06483851 28.30828037 48.08695387 37.85167066 48.10362434 47.39510059 C48.11407337 53.18278343 48.12825299 58.97040758 48.15087891 64.75805664 C48.17256737 70.34067552 48.1845602 75.92323786 48.18975449 81.50589561 C48.19345743 83.63860655 48.2006881 85.77131429 48.21146011 87.90400124 C48.22592186 90.88504412 48.22798017 93.86585166 48.22705078 96.84692383 C48.23424133 97.7338089 48.24143188 98.62069397 48.24884033 99.53445435 C48.246091 100.34633713 48.24334167 101.15821991 48.24050903 101.9947052 C48.24235262 102.69987683 48.24419621 103.40504847 48.24609566 104.13158894 C48 106 48 106 46 109 C42.99201135 109.40721868 40.02678633 109.12971941 37 109 C36.13928604 96.85796163 35.86426861 84.79102544 35.90234375 72.62109375 C35.90421513 70.8293512 35.90563562 69.03760812 35.90663147 67.24586487 C35.91040008 62.59195474 35.92018008 57.93807718 35.93133545 53.28417969 C35.9434994 47.66708296 35.9479788 42.04997517 35.95378876 36.43286896 C35.96339647 27.95522351 35.9825921 19.47764914 36 11 C24.12 11 12.24 11 0 11 C0 7.37 0 3.74 0 0 Z " fill="#080808" transform="translate(638,425)"/>
<path d="M0 0 C3.28393572 3.82256045 5.07020088 8.26203669 7.08984375 12.82421875 C7.47564102 13.68505569 7.86143829 14.54589264 8.25892639 15.43281555 C9.48982614 18.18230028 10.71374311 20.93482977 11.9375 23.6875 C12.75670432 25.52038668 13.57636112 27.35307119 14.39648438 29.18554688 C16.2582294 33.3484534 18.11891736 37.5117966 19.96432495 41.68197632 C20.68213615 43.28856456 21.4122796 44.88967781 22.15213013 46.48623657 C22.70246414 47.68378067 22.70246414 47.68378067 23.26391602 48.90551758 C23.7636367 49.97785393 23.7636367 49.97785393 24.27345276 51.07185364 C25 53 25 53 25 56 C8.83 56 -7.34 56 -24 56 C-23.18533113 51.92665566 -22.30611832 49.1198135 -20.62890625 45.4140625 C-20.14139893 44.32851074 -19.6538916 43.24295898 -19.15161133 42.12451172 C-18.62720459 40.96967285 -18.10279785 39.81483398 -17.5625 38.625 C-16.47305077 36.20352694 -15.3844723 33.78167871 -14.296875 31.359375 C-14.02164505 30.74774506 -13.7464151 30.13611511 -13.46284485 29.50595093 C-10.24176781 22.33717149 -7.13287994 15.1198852 -4.03540039 7.89697266 C-3.45520142 6.5519165 -3.45520142 6.5519165 -2.86328125 5.1796875 C-2.52594971 4.39319824 -2.18861816 3.60670898 -1.84106445 2.79638672 C-1 1 -1 1 0 0 Z " fill="#EDEDED" transform="translate(792,439)"/>
<path d="M0 0 C2.78801909 3.37017349 4.55084001 7.05071765 6.328125 11.01171875 C6.63836105 11.69349686 6.94859711 12.37527496 7.26823425 13.07771301 C8.26751994 15.27859204 9.2591523 17.48281077 10.25 19.6875 C10.92970521 21.19143503 11.60947412 22.69534127 12.28930664 24.19921875 C25 52.39267651 25 52.39267651 25 55 C8.83 55 -7.34 55 -24 55 C-18.37352659 40.37116913 -18.37352659 40.37116913 -15.87890625 34.84375 C-15.61166245 34.24929077 -15.34441864 33.65483154 -15.06907654 33.0423584 C-14.23683684 31.19340232 -13.39974869 29.34669226 -12.5625 27.5 C-12.00945478 26.27227539 -11.45671981 25.04441099 -10.90429688 23.81640625 C-7.31773049 15.85525259 -3.67185545 7.92212551 0 0 Z " fill="#ECECEC" transform="translate(1267,439)"/>
<path d="M0 0 C0.33 0 0.66 0 1 0 C2.15214943 34.89980848 2.1241299 69.79279146 2.07202661 104.70632148 C2.06060302 112.50391606 2.05528971 120.30151181 2.05032361 128.09911275 C2.04002616 144.06608489 2.02257796 160.03304019 2 176 C-2.94308845 171.21636601 -2.94308845 171.21636601 -3.13142776 167.19100475 C-3.13588976 165.37836116 -3.13588976 165.37836116 -3.14044189 163.52909851 C-3.14341302 162.85713135 -3.14638414 162.18516419 -3.1494453 161.49283439 C-3.15814976 159.23048065 -3.15964201 156.96817972 -3.16113281 154.70581055 C-3.16575977 153.08803188 -3.17078427 151.47025432 -3.17617798 149.85247803 C-3.18931626 145.44950902 -3.19574978 141.04655526 -3.20018864 136.64356971 C-3.20311723 133.89401337 -3.20722164 131.14446123 -3.21169281 128.394907 C-3.22537187 119.79586483 -3.23503637 111.19683222 -3.2388947 102.59777993 C-3.24337578 92.664731 -3.26092427 82.73181966 -3.2898953 72.79881257 C-3.31149956 65.12571863 -3.32159832 57.45266344 -3.32293582 49.77953941 C-3.32398481 45.19458821 -3.32991236 40.60976626 -3.34775543 36.02484703 C-3.36421431 31.71155911 -3.36640229 27.39849792 -3.35761642 23.08518982 C-3.35684486 21.50213833 -3.3612045 19.91907476 -3.37107468 18.33605385 C-3.38376211 16.17438251 -3.37793555 14.01351802 -3.36749268 11.85185242 C-3.36895924 10.64229228 -3.3704258 9.43273214 -3.3719368 8.18651867 C-2.96615264 4.71001726 -2.07397562 2.79096436 0 0 Z " fill="#FEEED5" transform="translate(1072,172)"/>
<path d="M0 0 C5.32577669 2.36186618 11.14019664 2.8831452 16.859375 3.71875 C18.02017578 3.89599609 19.18097656 4.07324219 20.37695312 4.25585938 C23.22410518 4.68937635 26.07226635 5.11424187 28.921875 5.53125 C29.416875 7.01625 29.416875 7.01625 29.921875 8.53125 C29.13941406 8.72460938 28.35695313 8.91796875 27.55078125 9.1171875 C26.03291016 9.50777344 26.03291016 9.50777344 24.484375 9.90625 C23.47503906 10.16148437 22.46570313 10.41671875 21.42578125 10.6796875 C18.76617176 11.25698954 18.76617176 11.25698954 17.921875 13.53125 C17.261875 13.53125 16.601875 13.53125 15.921875 13.53125 C15.921875 12.87125 15.921875 12.21125 15.921875 11.53125 C14.4678125 11.49257813 14.4678125 11.49257813 12.984375 11.453125 C11.63017195 11.39669987 10.27600695 11.33935641 8.921875 11.28125 C7.6225 11.23484375 6.323125 11.1884375 4.984375 11.140625 C1.389117 10.84555963 -1.92851687 10.07315762 -5.40209961 9.11108398 C-15.60564893 6.29618216 -25.5356106 5.6676881 -36.078125 5.28125 C-37.83600343 5.20462286 -39.59381756 5.12650548 -41.3515625 5.046875 C-45.59320847 4.85788774 -49.8352007 4.68882237 -54.078125 4.53125 C-54.408125 2.88125 -54.738125 1.23125 -55.078125 -0.46875 C-39.09527727 -6.68430189 -15.71381534 -7.49796265 0 0 Z " fill="#E1A651" transform="translate(185.078125,442.46875)"/>
<path d="M0 0 C2.36462078 1.97051732 4.69028602 3.96639983 7 6 C7.64839844 6.556875 8.29679688 7.11375 8.96484375 7.6875 C21.14195434 18.87597389 26.88358481 36.04057489 33 51 C33.24890991 51.60694702 33.49781982 52.21389404 33.75427246 52.8392334 C35.34239597 56.72018072 36.90217517 60.61108956 38.43148804 64.51559448 C38.93071409 65.7847084 39.43551797 67.05164402 39.94619751 68.31619263 C44.88253798 80.58922853 44.88253798 80.58922853 43 88 C39.77531573 85.2971013 38.19224268 81.78212658 36.375 78.078125 C36.03176193 77.39022888 35.68852386 76.70233276 35.33488464 75.99359131 C34.21704355 73.74875256 33.10823657 71.49959389 32 69.25 C31.2272637 67.69126032 30.45423118 66.13266745 29.6809082 64.57421875 C23.66939089 52.43889017 17.74665183 40.2631998 12 28 C11.46407227 26.85837402 10.92814453 25.71674805 10.37597656 24.54052734 C8.68102163 20.9261499 6.99584555 17.30729969 5.3125 13.6875 C4.78229248 12.55248047 4.25208496 11.41746094 3.70581055 10.24804688 C3.22152588 9.20068359 2.73724121 8.15332031 2.23828125 7.07421875 C1.80555908 6.14182373 1.37283691 5.20942871 0.92700195 4.2487793 C0 2 0 2 0 0 Z " fill="#E98030" transform="translate(944,193)"/>
<path d="M0 0 C0.33 0 0.66 0 1 0 C1.02338554 19.53251595 1.04100694 39.06502905 1.05181217 58.59755611 C1.05696312 67.6673371 1.0639829 76.73710937 1.07543945 85.80688477 C1.08542302 93.71433234 1.09186217 101.62177361 1.09408849 109.52922732 C1.09538936 113.71410787 1.09843567 117.89897038 1.10573006 122.08384514 C1.11254825 126.02770774 1.11460521 129.97154496 1.11310768 133.9154129 C1.11338141 135.35809785 1.11535198 136.80078369 1.11920547 138.24346352 C1.13783108 145.58020274 1.00418277 152.72731439 0 160 C-2.9538117 158.29287059 -5.06357208 156.87438519 -7 154 C-7.62662184 147.65545387 -6.36357919 141.43442215 -5 135.25 C-4.04734223 130.89181303 -3.68893892 126.56945505 -3.45507812 122.12475586 C-3.41318611 121.34319343 -3.3712941 120.56163099 -3.32813263 119.75638485 C-2.87162915 110.47961493 -2.80063473 101.19981798 -2.73963928 91.91348457 C-2.71819724 88.67029978 -2.69122456 85.42719894 -2.66296387 82.18406677 C-2.59395428 74.14352792 -2.53380757 66.10292818 -2.47393799 58.06231689 C-2.42276392 51.22849067 -2.36790928 44.39471342 -2.30812073 37.56095695 C-2.28181284 34.38436772 -2.26085251 31.20777289 -2.2401123 28.03114319 C-2.22349595 26.06836724 -2.20662296 24.10559345 -2.18945312 22.14282227 C-2.18526871 21.27557526 -2.18108429 20.40832825 -2.17677307 19.51480103 C-2.00082309 2.00082309 -2.00082309 2.00082309 0 0 Z " fill="#FDEFD7" transform="translate(1230,152)"/>
<path d="M0 0 C0 0.99 0 1.98 0 3 C-2.97 2.505 -2.97 2.505 -6 2 C-6.11022765 8.80262052 -4.50641272 12.39549663 0.2109375 17.2734375 C0.80132812 17.84320313 1.39171875 18.41296875 2 19 C2.50144531 19.55171875 3.00289063 20.1034375 3.51953125 20.671875 C6.25569882 23.12648443 9.50005187 23.09459319 13 23 C17.75486035 22.32957501 22.44994699 21.55578475 27 20 C27.495 18.515 27.495 18.515 28 17 C31.44847383 14.47996143 34.86573995 14.84099 39 15 C39.66 13.68 40.32 12.36 41 11 C42.14744331 13.60346797 43.29301468 16.20773205 44.4375 18.8125 C44.76298828 19.55048828 45.08847656 20.28847656 45.42382812 21.04882812 C45.89272461 22.11713867 45.89272461 22.11713867 46.37109375 23.20703125 C46.65911865 23.8616333 46.94714355 24.51623535 47.24389648 25.19067383 C47.90193984 26.76534587 48.46031369 28.38094108 49 30 C45 30 45 30 42.859375 28.25 C42.16328125 27.5075 41.4671875 26.765 40.75 26 C40.04359375 25.2575 39.3371875 24.515 38.609375 23.75 C38.07828125 23.1725 37.5471875 22.595 37 22 C33.40619908 23.3190014 30.43156153 24.94665761 27.25 27.0625 C22.59483694 29.86664867 18.51567386 31.79362214 13 31 C10.03806164 29.67437724 7.56682094 27.96867036 5 26 C2.33179014 23.80141028 2.33179014 23.80141028 0.0625 24.0625 C-2.91060078 25.41390945 -4.19259883 27.32006034 -6 30 C-7.08228299 33.07168177 -6.96357851 34.91654877 -6 38 C-5.03632868 41.08374821 -5.00647156 42.90902264 -6 46 C-6.23074219 45.154375 -6.46148437 44.30875 -6.69921875 43.4375 C-8.48447243 37.22792197 -10.33002451 31.97112955 -13.9609375 26.625 C-16.75626307 22.25336302 -16.08456367 16.98925645 -16 12 C-15.67 12 -15.34 12 -15 12 C-14.34 14.97 -13.68 17.94 -13 21 C-7.8258183 14.27356379 -7.37224148 9.37011363 -8 1 C-5.36 0.67 -2.72 0.34 0 0 Z " fill="#EBA04E" transform="translate(465,329)"/>
<path d="M0 0 C0 1.98 0 3.96 0 6 C2.64 6.33 5.28 6.66 8 7 C7 9 7 9 3.640625 10.21875 C2.18043195 10.65714553 0.71657972 11.08346873 -0.75 11.5 C-1.52134277 11.72067139 -2.29268555 11.94134277 -3.08740234 12.16870117 C-16.42842354 15.87761005 -30.27605383 17.6190737 -44 15 C-44.33 13.35 -44.66 11.7 -45 10 C-40.94760314 8.91434358 -36.89485259 7.83001958 -32.84179688 6.74682617 C-31.46865672 6.37966183 -30.0956068 6.01215982 -28.72265625 5.64428711 C-25.4135649 4.75775057 -22.10353963 3.87509585 -18.79101562 3.00146484 C-16.33958019 2.35387416 -13.8901887 1.69847384 -11.44335938 1.03369141 C-9.83944336 0.60902588 -9.83944336 0.60902588 -8.203125 0.17578125 C-7.26629883 -0.07647217 -6.32947266 -0.32872559 -5.36425781 -0.58862305 C-3 -1 -3 -1 0 0 Z " fill="#E4AB61" transform="translate(200,223)"/>
<path d="M0 0 C0.98742188 0.44472656 1.97484375 0.88945312 2.9921875 1.34765625 C4.28627697 1.91968131 5.58055781 2.49127356 6.875 3.0625 C7.52597656 3.35705078 8.17695312 3.65160156 8.84765625 3.95507812 C10.54010541 4.69661513 12.26868575 5.35439001 14 6 C14.66 5.67 15.32 5.34 16 5 C16.05800781 6.00546875 16.11601563 7.0109375 16.17578125 8.046875 C16.85951884 12.74006864 19.26695227 15.63536007 22.1875 19.25 C23.27591015 20.64752664 24.36309601 22.04600741 25.44921875 23.4453125 C26.02462402 24.17911133 26.6000293 24.91291016 27.19287109 25.66894531 C30.36915514 29.76610285 33.43035331 33.94771537 36.5 38.125 C37.08676514 38.9180957 37.67353027 39.71119141 38.27807617 40.52832031 C41.29630864 44.6200411 44.22365332 48.74021318 47 53 C45.02 53.495 45.02 53.495 43 54 C42.28714844 53.21496094 41.57429688 52.42992187 40.83984375 51.62109375 C39.87279207 50.55953474 38.90531554 49.49836266 37.9375 48.4375 C37.43669922 47.88827881 36.93589844 47.33905762 36.41992188 46.77319336 C33.68461615 43.78838339 30.91040837 40.87902423 28 38.0625 C25.48776898 35.59244072 23.55529526 33.20207849 22 30 C22 29.34 22 28.68 22 28 C21.43796875 27.77054687 20.8759375 27.54109375 20.296875 27.3046875 C11.86004892 22.51234071 4.61917245 11.36096019 0 3 C0 2.01 0 1.02 0 0 Z " fill="#E88342" transform="translate(1163,269)"/>
<path d="M0 0 C4 2 4 2 6.5625 4.125 C8.88377389 6.30485538 8.88377389 6.30485538 12 6 C12.12375 7.051875 12.12375 7.051875 12.25 8.125 C13.17027725 11.65272947 14.88126977 14.06111614 17 17 C13.14974121 16.39644592 10.13898841 15.23227397 6.6875 13.4375 C5.80449219 12.98246094 4.92148438 12.52742187 4.01171875 12.05859375 C3.34785156 11.70925781 2.68398437 11.35992187 2 11 C2.00092179 11.60462098 2.00184359 12.20924196 2.00279331 12.83218479 C2.02496898 27.60844915 2.04146992 42.38471188 2.05181217 57.16098881 C2.05694775 64.30695764 2.06393767 71.4529153 2.07543945 78.59887695 C2.08547058 84.83415737 2.09187329 91.06942969 2.09408849 97.30471796 C2.09538142 100.60000292 2.09891755 103.8952596 2.10573006 107.19053841 C2.1581055 133.59207853 2.1581055 133.59207853 1 146 C0.67 146 0.34 146 0 146 C0 97.82 0 49.64 0 0 Z " fill="#FAE2C7" transform="translate(1100,204)"/>
<path d="M0 0 C9.30918011 1.40208317 18.00263348 9.13032681 23.84375 16.24609375 C28.2628347 22.30295326 32.43038911 28.93357006 35 36 C34.56054688 38.16650391 34.56054688 38.16650391 34 40 C31.60275688 37.77234548 29.20746553 35.54260279 26.8125 33.3125 C26.13896484 32.68666016 25.46542969 32.06082031 24.77148438 31.41601562 C14.27926787 21.64034073 14.27926787 21.64034073 11 16 C10.05384676 14.72007259 9.09414816 13.45010524 8.125 12.1875 C5.14687335 8.27870877 2.53012828 4.20941697 0 0 Z " fill="#FCE7CB" transform="translate(1109,176)"/>
<path d="M0 0 C-3.47807412 1.13874184 -6.25158956 0.90158296 -9.859375 0.44140625 C-10.97441406 0.30283203 -12.08945313 0.16425781 -13.23828125 0.02148438 C-14.39714844 -0.12998047 -15.55601562 -0.28144531 -16.75 -0.4375 C-18.51150391 -0.65889648 -18.51150391 -0.65889648 -20.30859375 -0.88476562 C-23.20662568 -1.24996477 -26.1036212 -1.62194968 -29 -2 C-29 -1.34 -29 -0.68 -29 0 C-28.0925 0.268125 -27.185 0.53625 -26.25 0.8125 C-23.25433521 1.90706983 -21.45876445 3.04902386 -19 5 C-31.36008863 5.17327227 -43.65822514 4.63594729 -56 4 C-56.33 2.35 -56.66 0.7 -57 -1 C-39.66671055 -7.74072367 -17.07086531 -7.23075326 0 0 Z " fill="#E6C48B" transform="translate(187,443)"/>
<path d="M0 0 C11.62743107 4.20667222 17.72339261 17.77643045 22.8828125 28.1640625 C23.25148438 29.09992188 23.62015625 30.03578125 24 31 C23.67 31.66 23.34 32.32 23 33 C19.6483036 30.35573132 16.31820842 27.68616872 13 25 C12.34386719 24.47277344 11.68773437 23.94554687 11.01171875 23.40234375 C6.35856516 19.50644856 2.20930415 15.17017645 -1.9375 10.75 C-2.51798096 10.13495605 -3.09846191 9.51991211 -3.6965332 8.88623047 C-4.23882568 8.29986816 -4.78111816 7.71350586 -5.33984375 7.109375 C-5.82831787 6.58311523 -6.31679199 6.05685547 -6.82006836 5.51464844 C-8 4 -8 4 -9 1 C-5.82912985 -0.58543507 -3.52009516 -0.34065437 0 0 Z " fill="#FB7603" transform="translate(729,257)"/>
<path d="M0 0 C4.36274646 2.37599389 7.7783607 5.31565065 11.375 8.6875 C11.94863281 9.2235083 12.52226563 9.7595166 13.11328125 10.31176758 C20.76700338 17.53485937 26.28587409 24.57174818 31 34 C21.80182345 32.93295749 14.24583188 27.26689469 8.49609375 20.1796875 C4.6465072 14.57115148 0 6.92340117 0 0 Z " fill="#FCE9CF" transform="translate(1138,246)"/>
<path d="M0 0 C0 0.99 0 1.98 0 3 C-2.97 2.505 -2.97 2.505 -6 2 C-5.97606268 7.27817862 -5.61199745 10.83134295 -1.875 14.75 C0.97516199 17.75161987 0.97516199 17.75161987 1.25 20.5 C-0.27916523 23.55833047 -2.26403198 25.79645636 -4.625 28.25390625 C-6.18720431 30.23772821 -6.69315926 31.50212463 -7 34 C-6.66179847 36.01954441 -6.66179847 36.01954441 -6 38 C-5.03632868 41.08374821 -5.00647156 42.90902264 -6 46 C-6.23074219 45.154375 -6.46148437 44.30875 -6.69921875 43.4375 C-8.48447243 37.22792197 -10.33002451 31.97112955 -13.9609375 26.625 C-16.75626307 22.25336302 -16.08456367 16.98925645 -16 12 C-15.67 12 -15.34 12 -15 12 C-14.34 14.97 -13.68 17.94 -13 21 C-7.8258183 14.27356379 -7.37224148 9.37011363 -8 1 C-5.36 0.67 -2.72 0.34 0 0 Z " fill="#EDA95C" transform="translate(465,329)"/>
<path d="M0 0 C3.40312738 1.05875074 6.01353231 2.00902154 9 4 C10.05206784 8.7710053 9.82255757 13.33581106 7.65234375 17.7265625 C6.18768358 19.90797126 4.67711456 21.97847799 3 24 C-1.47756166 17.28365751 -1.6040845 8.867147 -1 1 C-0.67 0.67 -0.34 0.34 0 0 Z " fill="#EE8C21" transform="translate(449,327)"/>
<path d="M0 0 C0.33 0 0.66 0 1 0 C1 3.96 1 7.92 1 12 C-6.18008605 13.33866011 -6.18008605 13.33866011 -9.875 11.8125 C-12.11420719 9.90258799 -13.09894127 8.78509063 -14 6 C-14.125 3.25 -14.125 3.25 -14 1 C-11.4375 0.5625 -11.4375 0.5625 -8 1 C-5.3796981 3.08682726 -3.1841849 5.46686248 -1 8 C-0.67 5.36 -0.34 2.72 0 0 Z " fill="#E98748" transform="translate(1230,303)"/>
<path d="M0 0 C4.03082 1.612328 6.75944137 4.46234596 9.75 7.5 C10.25660156 7.99886719 10.76320313 8.49773437 11.28515625 9.01171875 C15 12.74658861 15 12.74658861 15 15 C11.93887604 15.44796936 9.79494494 15.48881708 7.11328125 13.83984375 C3.62163701 10.97772027 1.07169807 8.5249474 0 4 C0 2.68 0 1.36 0 0 Z " fill="#FDECD3" transform="translate(1189,306)"/>
<path d="M0 0 C0.66 0.33 1.32 0.66 2 1 C2 7.27 2 13.54 2 20 C-4 15 -4 15 -4.7265625 12.75390625 C-4.47308759 7.28469756 -3.4922275 4.25615226 0 0 Z " fill="#FDECD2" transform="translate(1073,142)"/>
<path d="M0 0 C1.74627478 2.61941217 2.38722388 4.03824877 3 7 C9.28636144 8.66054831 15.59406714 9.89309248 22 11 C22 11.33 22 11.66 22 12 C10.82621357 11.32493575 -0.21957805 9.89551965 -11.3125 8.4375 C-13.13212135 8.20086326 -14.95178258 7.96453296 -16.77148438 7.72851562 C-21.1814566 7.15587021 -25.59087079 6.57909903 -30 6 C-30 5.67 -30 5.34 -30 5 C-20.1 5.33 -10.2 5.66 0 6 C0 4.02 0 2.04 0 0 Z " fill="#FAC88C" transform="translate(261,347)"/>
<path d="M0 0 C5.61 0 11.22 0 17 0 C13 6 13 6 10.125 6.625 C6.30930123 5.86186025 4.03650194 4.40095502 1 2 C0.67 1.34 0.34 0.68 0 0 Z " fill="#FDEDD5" transform="translate(1077,370)"/>
<path d="M0 0 C3.64751591 0.28057815 5.34775143 1.07331357 8.25 3.25 C9.24 4.735 9.24 4.735 10.25 6.25 C3.98 6.25 -2.29 6.25 -8.75 6.25 C-2.75 0.25 -2.75 0.25 0 0 Z " fill="#FBE4C9" transform="translate(1240.75,139.75)"/>
<path d="M0 0 C5.75 2.75 5.75 2.75 8 5 C8 7.4375 8 7.4375 7 10 C3.9375 11.8125 3.9375 11.8125 1 13 C-0.32229189 10.35541621 -0.09677194 8.32238699 -0.0625 5.375 C-0.05347656 4.37210937 -0.04445313 3.36921875 -0.03515625 2.3359375 C-0.02355469 1.56507813 -0.01195312 0.79421875 0 0 Z " fill="#FEEED5" transform="translate(1100,354)"/>
<path d="M0 0 C3.64813364 3.5055778 6.76940717 7.1249963 9.8125 11.1875 C10.99779297 12.75564453 10.99779297 12.75564453 12.20703125 14.35546875 C14 17 14 17 14 19 C7.18851761 16.22495162 2.20929077 9.44271155 -1 3 C-0.67 2.01 -0.34 1.02 0 0 Z " fill="#EA8949" transform="translate(1112,210)"/>
<path d="M0 0 C3.68006822 3.38168431 5.9785845 6.42521756 8 11 C5 13 5 13 1 13 C-0.00496852 9.98509443 -0.10335303 7.95818308 -0.0625 4.8125 C-0.05347656 3.91144531 -0.04445313 3.01039063 -0.03515625 2.08203125 C-0.02355469 1.39496094 -0.01195312 0.70789063 0 0 Z " fill="#FD971A" transform="translate(291,322)"/>
<path d="M0 0 C3.69495081 3.58842971 7.04758217 7.33171871 10.3125 11.3125 C10.76689453 11.86228516 11.22128906 12.41207031 11.68945312 12.97851562 C12.79525852 14.31712216 13.89795939 15.65829231 15 17 C14.67 17.66 14.34 18.32 14 19 C12.22513306 17.42100123 10.45512408 15.83707231 8.6875 14.25 C8.18798828 13.8065625 7.68847656 13.363125 7.17382812 12.90625 C0.10497264 6.5395987 0.10497264 6.5395987 -0.1875 2.25 C-0.125625 1.5075 -0.06375 0.765 0 0 Z " fill="#EB8440" transform="translate(1132,234)"/>
<path d="M0 0 C0.19148936 20.53191489 0.19148936 20.53191489 -1 30 C-2.28788008 30.53012738 -3.58046678 31.0488329 -4.875 31.5625 C-5.95394531 31.99755859 -5.95394531 31.99755859 -7.0546875 32.44140625 C-9 33 -9 33 -11 32 C-10.43990234 31.8649707 -9.87980469 31.72994141 -9.30273438 31.59082031 C-6.7001773 30.69223628 -5.04073789 29.86890861 -3 28 C-1.66226051 23.63231139 -1.60683134 19.29518795 -1.5 14.75 C-1.44070313 13.52796875 -1.38140625 12.3059375 -1.3203125 11.046875 C-1.17894271 8.03098624 -1.07358319 5.01817947 -1 2 C-1.66 1.67 -2.32 1.34 -3 1 C-1 0 -1 0 0 0 Z " fill="#FDBD74" transform="translate(409,324)"/>
<path d="M0 0 C3.23861303 1.44424635 5.61969163 3.25772247 8.25 5.625 C8.95640625 6.25664062 9.6628125 6.88828125 10.390625 7.5390625 C10.92171875 8.02117187 11.4528125 8.50328125 12 9 C11.67 9.66 11.34 10.32 11 11 C7.56404834 9.47291037 4.88087546 7.40072955 2 5 C1.071875 5.4640625 1.071875 5.4640625 0.125 5.9375 C-1.25 6.625 -2.625 7.3125 -4 8 C-2.87548273 5.0280615 -1.77706209 2.66559313 0 0 Z " fill="#EC8745" transform="translate(1100,200)"/>
<path d="M0 0 C0.66 0.33 1.32 0.66 2 1 C2 3.97 2 6.94 2 10 C-2 9 -2 9 -5 7 C-3.75023244 3.34683329 -3.32901247 2.21934164 0 0 Z " fill="#EF9029" transform="translate(470,326)"/>
<path d="M0 0 C3.95348167 2.26175928 7.3396997 4.2251128 8.9765625 8.625 C9.44550484 11.08869704 9.80242285 13.50064903 10 16 C5.46321158 11.98170169 2.54222705 7.5063556 0 2 C0 1.34 0 0.68 0 0 Z " fill="#EE975F" transform="translate(1138,211)"/>
<path d="M0 0 C2.99972349 3.78912441 5.47510809 7.88831832 8 12 C7.34 12 6.68 12 6 12 C6.33 13.32 6.66 14.64 7 16 C6.34 15.67 5.68 15.34 5 15 C5 13.68 5 12.36 5 11 C4.4225 10.773125 3.845 10.54625 3.25 10.3125 C0.4336339 8.66961977 -1.08077114 6.60466773 -3 4 C-1.68 4.33 -0.36 4.66 1 5 C0.67 3.35 0.34 1.7 0 0 Z " fill="#FAB980" transform="translate(751,283)"/>
<path d="M0 0 C1.2739902 0.76560456 2.54406512 1.53772626 3.8125 2.3125 C4.52019531 2.74175781 5.22789063 3.17101562 5.95703125 3.61328125 C7.95657648 4.97052514 9.55573822 6.05672418 11 8 C10.6875 10.1875 10.6875 10.1875 10 12 C8.32737283 10.38113585 6.66204463 8.7547271 5 7.125 C4.071875 6.22007812 3.14375 5.31515625 2.1875 4.3828125 C0 2 0 2 0 0 Z " fill="#FCE6CB" transform="translate(1121,226)"/>
<path d="M0 0 C4.2742558 1.5830577 6.26531794 4.50568404 9 8 C4.80639551 7.32902328 1.59665648 5.1441606 -2 3 C-1.34 2.01 -0.68 1.02 0 0 Z " fill="#FB8608" transform="translate(260,474)"/>
<path d="M0 0 C0.66 0.33 1.32 0.66 2 1 C2 4.96 2 8.92 2 13 C1.34 12.67 0.68 12.34 0 12 C0 8 0 4 0 0 Z " fill="#F8B168" transform="translate(471,324)"/>
</svg>
